<?xml version="1.0" encoding="UTF-8"?>
<!DOCTYPE svg PUBLIC "-//W3C//DTD SVG 1.1//EN" "http://www.w3.org/Graphics/SVG/1.1/DTD/svg11.dtd">
<svg xmlns="http://www.w3.org/2000/svg" version="1.1" width="1536px" height="959px" style="shape-rendering:geometricPrecision; text-rendering:geometricPrecision; image-rendering:optimizeQuality; fill-rule:evenodd; clip-rule:evenodd" xmlns:xlink="http://www.w3.org/1999/xlink">
<g><path style="opacity:0.964" fill="#fefefe" d="M 579.5,347.5 C 588.192,347.169 596.859,347.502 605.5,348.5C 635.276,413.78 665.276,479.113 695.5,544.5C 675.833,545.833 656.167,545.833 636.5,544.5C 633.779,537.491 630.779,530.658 627.5,524C 603.826,523.167 580.16,523.334 556.5,524.5C 553.788,531.475 550.788,538.308 547.5,545C 528.17,545.5 508.836,545.667 489.5,545.5C 518.898,479.36 548.898,413.36 579.5,347.5 Z M 591.5,442.5 C 598.643,455.57 604.643,469.237 609.5,483.5C 597.814,483.832 586.148,483.499 574.5,482.5C 580.197,469.115 585.863,455.782 591.5,442.5 Z"/></g>
<g><path style="opacity:0.958" fill="#fefefe" d="M 948.5,347.5 C 970.802,344.656 991.136,349.489 1009.5,362C 1015.64,367.301 1020.31,373.634 1023.5,381C 1013.65,391.182 1003.49,401.015 993,410.5C 989.494,406.999 985.661,403.833 981.5,401C 970.04,394.125 958.873,394.292 948,401.5C 944.075,407.299 945.241,411.799 951.5,415C 966.75,421.084 981.75,427.751 996.5,435C 1022.62,449.764 1033.45,471.931 1029,501.5C 1021.72,524.114 1006.55,538.614 983.5,545C 959.599,550.943 936.266,549.276 913.5,540C 901.02,534.124 891.686,525.124 885.5,513C 885.667,512.167 885.833,511.333 886,510.5C 896.283,500.261 906.783,490.261 917.5,480.5C 932.202,498.592 950.535,503.758 972.5,496C 976.85,492.417 977.517,488.251 974.5,483.5C 972.65,481.482 970.65,479.649 968.5,478C 955.623,470.586 942.289,463.919 928.5,458C 895.967,441.432 885.8,415.932 898,381.5C 909.886,362.774 926.719,351.441 948.5,347.5 Z"/></g>
<g><path style="opacity:0.965" fill="#fefefe" d="M 1301.5,347.5 C 1310.42,347.183 1319.25,347.516 1328,348.5C 1357.9,413.989 1387.73,479.655 1417.5,545.5C 1398.16,545.667 1378.83,545.5 1359.5,545C 1356.02,538.051 1353.02,530.885 1350.5,523.5C 1326.83,523.333 1303.16,523.5 1279.5,524C 1276.01,530.983 1273.01,538.149 1270.5,545.5C 1250.82,545.833 1231.16,545.5 1211.5,544.5C 1241.51,478.809 1271.51,413.142 1301.5,347.5 Z M 1314.5,442.5 C 1320.76,455.756 1326.76,469.256 1332.5,483C 1320.5,483.667 1308.5,483.667 1296.5,483C 1302.4,469.369 1308.4,455.869 1314.5,442.5 Z"/></g>
<g><path style="opacity:0.963" fill="#fdfdfd" d="M 195.5,349.5 C 205.023,349.004 213.523,351.671 221,357.5C 261.968,426.48 302.968,495.48 344,564.5C 349.852,582.302 344.352,595.136 327.5,603C 315.838,606.204 305.671,603.704 297,595.5C 280,567.167 263,538.833 246,510.5C 245.5,494.503 245.333,478.503 245.5,462.5C 236.161,462.666 226.827,462.5 217.5,462C 211.708,452.917 206.041,443.75 200.5,434.5C 194.583,443.331 188.917,452.331 183.5,461.5C 174.19,462.498 164.857,462.832 155.5,462.5C 155.667,477.837 155.5,493.17 155,508.5C 146.758,521.613 138.592,534.78 130.5,548C 138.827,548.5 147.16,548.666 155.5,548.5C 155.5,550.833 155.5,553.167 155.5,555.5C 185.5,555.5 215.5,555.5 245.5,555.5C 245.5,553.167 245.5,550.833 245.5,548.5C 257.743,548.91 264.909,555.244 267,567.5C 269.433,579.319 267.1,589.986 260,599.5C 257.214,601.142 254.381,602.642 251.5,604C 191.167,604.667 130.833,604.667 70.5,604C 55.6375,597.784 49.4708,586.618 52,570.5C 52.9419,567.007 54.2752,563.674 56,560.5C 96.5093,495.482 136.509,430.149 176,364.5C 180.268,356.465 186.768,351.465 195.5,349.5 Z"/></g>
<g><path style="opacity:0.955" fill="#fefefe" d="M 356.5,349.5 C 376.178,349.167 395.845,349.5 415.5,350.5C 424.466,368.339 433.3,386.339 442,404.5C 450.266,386.021 459.1,367.854 468.5,350C 488.407,349.174 508.24,349.341 528,350.5C 508.926,387.306 489.259,423.972 469,460.5C 468.5,488.831 468.333,517.165 468.5,545.5C 450.833,545.5 433.167,545.5 415.5,545.5C 415.667,517.498 415.5,489.498 415,461.5C 396.269,426.372 377.269,391.372 358,356.5C 356.798,354.323 356.298,351.989 356.5,349.5 Z"/></g>
<g><path style="opacity:0.964" fill="#fefefe" d="M 713.5,349.5 C 739.502,349.333 765.502,349.5 791.5,350C 822.914,351.13 844.747,365.963 857,394.5C 865.287,426.408 855.454,450.908 827.5,468C 844.304,493.636 861.304,519.136 878.5,544.5C 857.5,545.833 836.5,545.833 815.5,544.5C 799.333,518.167 783.167,491.833 767,465.5C 766.5,492.165 766.333,518.831 766.5,545.5C 748.833,545.5 731.167,545.5 713.5,545.5C 713.359,480.092 713.359,414.759 713.5,349.5 Z M 766.5,398.5 C 775.9,398.114 785.234,398.614 794.5,400C 806.511,407.068 809.011,416.568 802,428.5C 799.592,430.956 796.759,432.789 793.5,434C 784.568,435.381 775.568,435.881 766.5,435.5C 766.5,423.167 766.5,410.833 766.5,398.5 Z"/></g>
<g><path style="opacity:0.96" fill="#fefefe" d="M 1052.5,349.5 C 1070.17,349.5 1087.83,349.5 1105.5,349.5C 1105.5,414.833 1105.5,480.167 1105.5,545.5C 1087.83,545.5 1070.17,545.5 1052.5,545.5C 1052.5,480.167 1052.5,414.833 1052.5,349.5 Z"/></g>
<g><path style="opacity:0.96" fill="#fefefe" d="M 1435.5,349.5 C 1453.17,349.5 1470.83,349.5 1488.5,349.5C 1488.5,414.833 1488.5,480.167 1488.5,545.5C 1470.83,545.5 1453.17,545.5 1435.5,545.5C 1435.5,480.167 1435.5,414.833 1435.5,349.5 Z"/></g>
<g><path style="opacity:0.831" fill="#64d78e" d="M 331.5,352.5 C 325.195,351.513 318.862,351.347 312.5,352C 310.559,353.903 308.226,354.736 305.5,354.5C 306.058,353.21 307.058,352.377 308.5,352C 316.394,348.527 324.061,348.694 331.5,352.5 Z"/></g>
<g><path style="opacity:1" fill="#1bc65c" d="M 331.5,352.5 C 333.147,354.326 335.147,355.66 337.5,356.5C 338.833,358.5 340.5,360.167 342.5,361.5C 342.427,363.027 343.094,364.027 344.5,364.5C 345.824,371.767 346.49,379.1 346.5,386.5C 344.613,388.789 343.279,391.455 342.5,394.5C 342.5,395.167 342.167,395.5 341.5,395.5C 339.167,395.833 337.833,397.167 337.5,399.5C 337.5,400.167 337.167,400.5 336.5,400.5C 334.847,400.66 333.514,401.326 332.5,402.5C 330.62,402.229 329.287,402.896 328.5,404.5C 328.167,404.5 327.833,404.5 327.5,404.5C 320.732,404.714 314.065,404.047 307.5,402.5C 306.508,402.672 305.842,402.338 305.5,401.5C 304.415,399.413 302.749,398.08 300.5,397.5C 298.745,394.32 296.745,391.32 294.5,388.5C 293.136,385.228 292.136,381.728 291.5,378C 292.206,374.138 293.039,370.305 294,366.5C 294.377,365.058 295.21,364.058 296.5,363.5C 299.264,360.281 302.264,357.281 305.5,354.5C 308.226,354.736 310.559,353.903 312.5,352C 318.862,351.347 325.195,351.513 331.5,352.5 Z"/></g>
<g><path style="opacity:0.216" fill="#73db9a" d="M 331.5,352.5 C 334.337,352.684 336.337,354.018 337.5,356.5C 335.147,355.66 333.147,354.326 331.5,352.5 Z"/></g>
<g><path style="opacity:0.02" fill="#6ed997" d="M 337.5,356.5 C 340.167,357.167 341.833,358.833 342.5,361.5C 340.5,360.167 338.833,358.5 337.5,356.5 Z"/></g>
<g><path style="opacity:0.224" fill="#70db98" d="M 305.5,354.5 C 302.264,357.281 299.264,360.281 296.5,363.5C 297.833,358.833 300.833,355.833 305.5,354.5 Z"/></g>
<g><path style="opacity:0.451" fill="#72db99" d="M 342.5,361.5 C 343.906,361.973 344.573,362.973 344.5,364.5C 343.094,364.027 342.427,363.027 342.5,361.5 Z"/></g>
<g><path style="opacity:0.993" fill="#4cd17b" d="M 344.5,364.5 C 345.793,365.842 346.626,367.509 347,369.5C 347.818,375.349 347.652,381.015 346.5,386.5C 346.49,379.1 345.824,371.767 344.5,364.5 Z"/></g>
<g><path style="opacity:0.455" fill="#71da99" d="M 346.5,386.5 C 346.206,389.754 344.873,392.421 342.5,394.5C 343.279,391.455 344.613,388.789 346.5,386.5 Z"/></g>
<g><path style="opacity:0.31" fill="#70db98" d="M 294.5,388.5 C 296.745,391.32 298.745,394.32 300.5,397.5C 297.271,395.39 295.271,392.39 294.5,388.5 Z"/></g>
<g><path style="opacity:0.2" fill="#69d691" d="M 341.5,395.5 C 341.167,397.833 339.833,399.167 337.5,399.5C 337.833,397.167 339.167,395.833 341.5,395.5 Z"/></g>
<g><path style="opacity:0.533" fill="#6ad994" d="M 300.5,397.5 C 302.749,398.08 304.415,399.413 305.5,401.5C 303.251,400.92 301.585,399.587 300.5,397.5 Z"/></g>
<g><path style="opacity:0.098" fill="#76d695" d="M 336.5,400.5 C 335.713,402.104 334.38,402.771 332.5,402.5C 333.514,401.326 334.847,400.66 336.5,400.5 Z"/></g>
<g><path style="opacity:0.047" fill="#75dc9d" d="M 332.5,402.5 C 331.713,404.104 330.38,404.771 328.5,404.5C 329.287,402.896 330.62,402.229 332.5,402.5 Z"/></g>
<g><path style="opacity:0.263" fill="#63d78e" d="M 307.5,402.5 C 314.065,404.047 320.732,404.714 327.5,404.5C 322.684,405.65 317.684,405.816 312.5,405C 310.347,404.901 308.681,404.067 307.5,402.5 Z"/></g>
<g><path style="opacity:0.943" fill="#fdfdfd" d="M 310.5,414.5 C 317.921,414.109 325.254,414.609 332.5,416C 339.758,418.924 344.592,424.091 347,431.5C 347.833,471.504 347.667,511.504 346.5,551.5C 327.684,521.872 309.517,491.872 292,461.5C 291.333,452.167 291.333,442.833 292,433.5C 294.997,424.004 301.164,417.67 310.5,414.5 Z"/></g>
<g><path style="opacity:1" fill="#037e40" d="M 170.5,480.5 C 177.833,480.5 185.167,480.5 192.5,480.5C 192.5,488.833 192.5,497.167 192.5,505.5C 193.5,505.5 194.5,505.5 195.5,505.5C 195.5,497.167 195.5,488.833 195.5,480.5C 198.833,480.5 202.167,480.5 205.5,480.5C 204.866,488.903 205.533,496.903 207.5,504.5C 208.492,496.684 208.826,488.684 208.5,480.5C 211.5,480.5 214.5,480.5 217.5,480.5C 217.334,488.174 217.5,495.841 218,503.5C 218.605,505.481 219.605,505.815 221,504.5C 221.5,496.507 221.666,488.507 221.5,480.5C 224.167,480.5 226.833,480.5 229.5,480.5C 229.5,491.833 229.5,503.167 229.5,514.5C 214.167,514.5 198.833,514.5 183.5,514.5C 183.826,506.316 183.492,498.316 182.5,490.5C 181.833,489.167 181.167,489.167 180.5,490.5C 179.506,499.652 179.173,508.985 179.5,518.5C 183.5,518.5 187.5,518.5 191.5,518.5C 191.813,521.247 191.48,523.914 190.5,526.5C 189.833,525.833 189.167,525.167 188.5,524.5C 182.724,526.395 176.724,527.061 170.5,526.5C 170.5,511.167 170.5,495.833 170.5,480.5 Z"/></g>
<g><path style="opacity:0.31" fill="#6eb093" d="M 205.5,478.5 C 206.167,478.5 206.833,478.5 207.5,478.5C 207.5,487.167 207.5,495.833 207.5,504.5C 205.533,496.903 204.866,488.903 205.5,480.5C 205.5,479.833 205.5,479.167 205.5,478.5 Z"/></g>
<g><path style="opacity:0.749" fill="#40926c" d="M 207.5,478.5 C 215.167,478.5 222.833,478.5 230.5,478.5C 230.5,478.833 230.5,479.167 230.5,479.5C 227.287,479.19 224.287,479.523 221.5,480.5C 220.167,480.5 218.833,480.5 217.5,480.5C 214.5,480.5 211.5,480.5 208.5,480.5C 208.826,488.684 208.492,496.684 207.5,504.5C 207.5,495.833 207.5,487.167 207.5,478.5 Z"/></g>
<g><path style="opacity:0.112" fill="#1c784e" d="M 217.5,480.5 C 218.833,480.5 220.167,480.5 221.5,480.5C 221.666,488.507 221.5,496.507 221,504.5C 219.605,505.815 218.605,505.481 218,503.5C 217.5,495.841 217.334,488.174 217.5,480.5 Z"/></g>
<g><path style="opacity:0.11" fill="#4b9570" d="M 205.5,478.5 C 205.5,479.167 205.5,479.833 205.5,480.5C 202.167,480.5 198.833,480.5 195.5,480.5C 195.5,488.833 195.5,497.167 195.5,505.5C 194.5,505.5 193.5,505.5 192.5,505.5C 192.5,497.167 192.5,488.833 192.5,480.5C 185.167,480.5 177.833,480.5 170.5,480.5C 169.339,495.995 169.172,511.661 170,527.5C 177.413,528.481 184.913,528.814 192.5,528.5C 192.5,525.167 192.5,521.833 192.5,518.5C 192.833,518.5 193.167,518.5 193.5,518.5C 193.833,518.5 194.167,518.5 194.5,518.5C 194.5,519.167 194.5,519.833 194.5,520.5C 193.833,520.5 193.5,520.833 193.5,521.5C 193.5,524.167 193.5,526.833 193.5,529.5C 185.167,529.5 176.833,529.5 168.5,529.5C 168.5,512.5 168.5,495.5 168.5,478.5C 180.979,478.832 193.312,478.832 205.5,478.5 Z"/></g>
<g><path style="opacity:0.943" fill="#fefefe" d="M 1163.5,490.5 C 1188.88,492.706 1200.05,506.372 1197,531.5C 1188.94,548.857 1175.44,555.691 1156.5,552C 1136.76,544.683 1129.59,530.85 1135,510.5C 1141.11,498.879 1150.61,492.212 1163.5,490.5 Z"/></g>
<g><path style="opacity:0.552" fill="#3d946b" d="M 180.5,490.5 C 180.5,499.167 180.5,507.833 180.5,516.5C 184.5,517.167 188.5,517.833 192.5,518.5C 192.167,518.5 191.833,518.5 191.5,518.5C 187.5,518.5 183.5,518.5 179.5,518.5C 179.173,508.985 179.506,499.652 180.5,490.5 Z"/></g>
<g><path style="opacity:0.027" fill="#76b99f" d="M 180.5,490.5 C 181.167,498.833 181.833,507.167 182.5,515.5C 182.158,516.338 181.492,516.672 180.5,516.5C 180.5,507.833 180.5,499.167 180.5,490.5 Z"/></g>
<g><path style="opacity:0.318" fill="#499375" d="M 180.5,490.5 C 181.167,489.167 181.833,489.167 182.5,490.5C 182.5,498.833 182.5,507.167 182.5,515.5C 181.833,507.167 181.167,498.833 180.5,490.5 Z"/></g>
<g><path style="opacity:0.832" fill="#16824e" d="M 221.5,480.5 C 224.287,479.523 227.287,479.19 230.5,479.5C 230.5,491.5 230.5,503.5 230.5,515.5C 214.5,515.5 198.5,515.5 182.5,515.5C 182.5,507.167 182.5,498.833 182.5,490.5C 183.492,498.316 183.826,506.316 183.5,514.5C 198.833,514.5 214.167,514.5 229.5,514.5C 229.5,503.167 229.5,491.833 229.5,480.5C 226.833,480.5 224.167,480.5 221.5,480.5 Z"/></g>
<g><path style="opacity:0.235" fill="#58a680" d="M 230.5,478.5 C 231.117,478.611 231.617,478.944 232,479.5C 232.167,485.667 232.333,491.833 232.5,498C 232.265,512.462 232.099,526.962 232,541.5C 223.617,542.067 215.45,542.067 207.5,541.5C 207.185,537.629 207.518,533.962 208.5,530.5C 208.44,529.957 208.107,529.624 207.5,529.5C 206.833,533.313 206.166,536.979 205.5,540.5C 205.5,540.167 205.5,539.833 205.5,539.5C 205.5,535.833 205.5,532.167 205.5,528.5C 213.833,528.5 222.167,528.5 230.5,528.5C 230.5,525.167 230.5,521.833 230.5,518.5C 218.678,517.505 206.678,517.172 194.5,517.5C 193.794,516.443 193.461,516.776 193.5,518.5C 193.167,518.5 192.833,518.5 192.5,518.5C 188.5,517.833 184.5,517.167 180.5,516.5C 181.492,516.672 182.158,516.338 182.5,515.5C 198.5,515.5 214.5,515.5 230.5,515.5C 230.5,503.5 230.5,491.5 230.5,479.5C 230.5,479.167 230.5,478.833 230.5,478.5 Z"/></g>
<g><path style="opacity:1" fill="#057e41" d="M 230.5,518.5 C 230.5,521.833 230.5,525.167 230.5,528.5C 222.167,528.5 213.833,528.5 205.5,528.5C 205.5,532.167 205.5,535.833 205.5,539.5C 193.833,539.5 182.167,539.5 170.5,539.5C 170.5,536.833 170.5,534.167 170.5,531.5C 178.84,531.666 187.173,531.5 195.5,531C 195.697,526.985 195.697,522.818 195.5,518.5C 207.167,518.5 218.833,518.5 230.5,518.5 Z"/></g>
<g><path style="opacity:0.988" fill="#147c49" d="M 170.5,480.5 C 170.5,495.833 170.5,511.167 170.5,526.5C 176.724,527.061 182.724,526.395 188.5,524.5C 189.167,525.167 189.833,525.833 190.5,526.5C 191.48,523.914 191.813,521.247 191.5,518.5C 191.833,518.5 192.167,518.5 192.5,518.5C 192.5,521.833 192.5,525.167 192.5,528.5C 184.913,528.814 177.413,528.481 170,527.5C 169.172,511.661 169.339,495.995 170.5,480.5 Z"/></g>
<g><path style="opacity:0.176" fill="#69a789" d="M 193.5,521.5 C 193.833,521.5 194.167,521.5 194.5,521.5C 194.5,524.5 194.5,527.5 194.5,530.5C 186.167,530.5 177.833,530.5 169.5,530.5C 169.806,533.385 169.473,536.052 168.5,538.5C 168.5,535.5 168.5,532.5 168.5,529.5C 176.833,529.5 185.167,529.5 193.5,529.5C 193.5,526.833 193.5,524.167 193.5,521.5 Z"/></g>
<g><path style="opacity:0.871" fill="#288557" d="M 194.5,517.5 C 206.678,517.172 218.678,517.505 230.5,518.5C 218.833,518.5 207.167,518.5 195.5,518.5C 195.697,522.818 195.697,526.985 195.5,531C 187.173,531.5 178.84,531.666 170.5,531.5C 170.5,534.167 170.5,536.833 170.5,539.5C 182.167,539.5 193.833,539.5 205.5,539.5C 205.5,539.833 205.5,540.167 205.5,540.5C 193.678,541.495 181.678,541.828 169.5,541.5C 168.596,540.791 168.263,539.791 168.5,538.5C 169.473,536.052 169.806,533.385 169.5,530.5C 177.833,530.5 186.167,530.5 194.5,530.5C 194.5,527.5 194.5,524.5 194.5,521.5C 194.5,521.167 194.5,520.833 194.5,520.5C 194.5,519.833 194.5,519.167 194.5,518.5C 194.5,518.167 194.5,517.833 194.5,517.5 Z"/></g>
<g><path style="opacity:1" fill="#037e40" d="M 208.5,531.5 C 211.167,531.5 213.833,531.5 216.5,531.5C 216.664,534.187 216.497,536.854 216,539.5C 213.619,538.565 211.119,538.232 208.5,538.5C 208.5,536.167 208.5,533.833 208.5,531.5 Z"/></g>
<g><path style="opacity:1" fill="#067e41" d="M 221.5,530.5 C 224.5,530.5 227.5,530.5 230.5,530.5C 230.5,533.5 230.5,536.5 230.5,539.5C 227.813,539.664 225.146,539.497 222.5,539C 221.556,536.281 221.223,533.448 221.5,530.5 Z"/></g>
<g><path style="opacity:1" fill="#197849" d="M 208.5,531.5 C 208.5,531.167 208.5,530.833 208.5,530.5C 212.833,530.5 217.167,530.5 221.5,530.5C 221.223,533.448 221.556,536.281 222.5,539C 225.146,539.497 227.813,539.664 230.5,539.5C 227.016,540.165 223.349,540.499 219.5,540.5C 215.435,540.489 211.768,539.822 208.5,538.5C 211.119,538.232 213.619,538.565 216,539.5C 216.497,536.854 216.664,534.187 216.5,531.5C 213.833,531.5 211.167,531.5 208.5,531.5 Z"/></g>
<g><path style="opacity:0.02" fill="#7cc3a3" d="M 208.5,530.5 C 207.518,533.962 207.185,537.629 207.5,541.5C 194.735,542.821 182.069,542.821 169.5,541.5C 181.678,541.828 193.678,541.495 205.5,540.5C 206.166,536.979 206.833,533.313 207.5,529.5C 208.107,529.624 208.44,529.957 208.5,530.5 Z"/></g>
<g><path style="opacity:0.873" fill="#fefefe" d="M 421.5,565.5 C 424.247,565.187 426.914,565.52 429.5,566.5C 437.384,583.52 445.051,600.52 452.5,617.5C 447.198,618.663 441.864,618.829 436.5,618C 435.139,616.416 434.472,614.582 434.5,612.5C 428.824,612.334 423.157,612.501 417.5,613C 416.5,614.667 415.5,616.333 414.5,618C 409.177,618.499 403.844,618.666 398.5,618.5C 405.871,600.753 413.537,583.087 421.5,565.5 Z M 424.5,594.5 C 425.376,594.369 426.043,594.702 426.5,595.5C 429.978,600.388 428.645,602.388 422.5,601.5C 422.878,599.079 423.545,596.746 424.5,594.5 Z"/></g>
<g><path style="opacity:0.859" fill="#fefefe" d="M 638.5,565.5 C 647.251,564.282 655.251,566.115 662.5,571C 663.574,571.739 664.241,572.739 664.5,574C 662.484,578.22 659.651,581.72 656,584.5C 647.62,578.507 640.286,579.507 634,587.5C 631.384,594.863 633.551,600.363 640.5,604C 646.335,605.409 651.502,604.243 656,600.5C 659.531,603.371 662.364,606.871 664.5,611C 662.502,614.513 659.502,616.846 655.5,618C 633.467,623.1 620.8,614.6 617.5,592.5C 618.628,578.729 625.628,569.729 638.5,565.5 Z"/></g>
<g><path style="opacity:0.874" fill="#fefefe" d="M 709.5,565.5 C 712.119,565.232 714.619,565.565 717,566.5C 725.318,583.471 732.818,600.804 739.5,618.5C 734.125,618.828 728.792,618.495 723.5,617.5C 722.926,615.941 722.26,614.441 721.5,613C 715.804,612.17 710.137,612.337 704.5,613.5C 703.833,614.833 703.167,616.167 702.5,617.5C 697.208,618.495 691.875,618.828 686.5,618.5C 693.642,600.663 701.309,582.997 709.5,565.5 Z M 712.5,593.5 C 714.201,595.731 715.534,598.231 716.5,601C 714.167,601.667 711.833,601.667 709.5,601C 710.781,598.573 711.781,596.073 712.5,593.5 Z"/></g>
<g><path style="opacity:0.85" fill="#fefefe" d="M 1065.5,565.5 C 1074.21,564.284 1082.21,566.117 1089.5,571C 1090.02,571.561 1090.36,572.228 1090.5,573C 1088.07,577.104 1085.23,580.937 1082,584.5C 1073.17,577.065 1065.84,578.398 1060,588.5C 1059.36,602.693 1065.86,607.693 1079.5,603.5C 1080.29,602.758 1080.95,601.925 1081.5,601C 1078.24,600.788 1075.08,600.288 1072,599.5C 1071.5,595.514 1071.33,591.514 1071.5,587.5C 1080.42,587.183 1089.25,587.516 1098,588.5C 1099.94,607.394 1091.44,617.727 1072.5,619.5C 1049.45,616.924 1040.61,604.258 1046,581.5C 1050.31,573.341 1056.81,568.008 1065.5,565.5 Z"/></g>
<g><path style="opacity:0.853" fill="#fefefe" d="M 1211.5,565.5 C 1221.1,564.093 1229.6,566.426 1237,572.5C 1236.26,576.965 1234.09,580.799 1230.5,584C 1227.74,583.665 1225.08,582.665 1222.5,581C 1210.15,579.685 1204.98,585.185 1207,597.5C 1210.66,604.07 1216.16,606.237 1223.5,604C 1225.37,602.634 1227.37,601.467 1229.5,600.5C 1232.77,603.529 1235.43,607.029 1237.5,611C 1236.18,613.654 1234.18,615.654 1231.5,617C 1217.95,622.15 1206.11,619.65 1196,609.5C 1186.01,589.302 1191.17,574.635 1211.5,565.5 Z"/></g>
<g><path style="opacity:0.872" fill="#fefefe" d="M 1352.5,565.5 C 1355.45,565.223 1358.28,565.556 1361,566.5C 1368.78,583.719 1376.28,601.052 1383.5,618.5C 1378.16,618.666 1372.82,618.499 1367.5,618C 1366.14,616.416 1365.47,614.582 1365.5,612.5C 1359.82,612.334 1354.16,612.501 1348.5,613C 1347.87,614.892 1346.87,616.559 1345.5,618C 1340.51,618.499 1335.51,618.666 1330.5,618.5C 1330.52,616.073 1331.02,613.74 1332,611.5C 1339.32,596.385 1346.15,581.052 1352.5,565.5 Z M 1356.5,593.5 C 1358.02,595.89 1359.02,598.557 1359.5,601.5C 1357.4,601.799 1355.4,601.466 1353.5,600.5C 1354.31,598.055 1355.31,595.722 1356.5,593.5 Z"/></g>
<g><path style="opacity:0.858" fill="#fefefe" d="M 1446.5,565.5 C 1454.54,564.782 1461.04,567.448 1466,573.5C 1466.67,574.5 1466.67,575.5 1466,576.5C 1463.83,578.667 1461.67,580.833 1459.5,583C 1456.42,582.476 1453.42,581.309 1450.5,579.5C 1449.1,579.865 1448.1,580.699 1447.5,582C 1453.41,585.034 1459.08,588.534 1464.5,592.5C 1470.55,601.217 1469.55,609.05 1461.5,616C 1452.88,620.471 1444.21,620.471 1435.5,616C 1432.11,613.998 1430.61,611.165 1431,607.5C 1433.38,604.781 1436.05,602.447 1439,600.5C 1442.8,603.964 1447.3,605.297 1452.5,604.5C 1452.67,603.178 1452.34,602.011 1451.5,601C 1446.59,598.143 1441.59,595.476 1436.5,593C 1428.42,579.548 1431.75,570.381 1446.5,565.5 Z"/></g>
<g><path style="opacity:0.859" fill="#fefefe" d="M 455.5,566.5 C 464.891,566.147 474.225,566.647 483.5,568C 493.689,573.565 496.522,581.731 492,592.5C 490.5,594.667 488.667,596.5 486.5,598C 490.92,604.686 494.92,611.519 498.5,618.5C 492.824,618.666 487.157,618.499 481.5,618C 478,612.5 474.5,607 471,601.5C 470.501,607.157 470.334,612.824 470.5,618.5C 465.5,618.5 460.5,618.5 455.5,618.5C 455.5,601.167 455.5,583.833 455.5,566.5 Z M 470.5,580.5 C 474.367,579.775 477.034,581.108 478.5,584.5C 478.471,586.029 477.804,587.196 476.5,588C 474.527,588.495 472.527,588.662 470.5,588.5C 470.5,585.833 470.5,583.167 470.5,580.5 Z"/></g>
<g><path style="opacity:0.867" fill="#fefefe" d="M 497.5,566.5 C 510.167,566.5 522.833,566.5 535.5,566.5C 535.5,571.5 535.5,576.5 535.5,581.5C 531.5,581.5 527.5,581.5 523.5,581.5C 523.5,593.833 523.5,606.167 523.5,618.5C 518.833,618.5 514.167,618.5 509.5,618.5C 509.5,606.167 509.5,593.833 509.5,581.5C 505.5,581.5 501.5,581.5 497.5,581.5C 497.5,576.5 497.5,571.5 497.5,566.5 Z"/></g>
<g><path style="opacity:0.888" fill="#fefefe" d="M 539.5,566.5 C 544.5,566.5 549.5,566.5 554.5,566.5C 554.5,583.833 554.5,601.167 554.5,618.5C 549.5,618.5 544.5,618.5 539.5,618.5C 539.5,601.167 539.5,583.833 539.5,566.5 Z"/></g>
<g><path style="opacity:0.831" fill="#fefefe" d="M 560.5,566.5 C 571.833,566.5 583.167,566.5 594.5,566.5C 594.5,571.5 594.5,576.5 594.5,581.5C 588.5,581.5 582.5,581.5 576.5,581.5C 576.5,583.5 576.5,585.5 576.5,587.5C 581.5,587.5 586.5,587.5 591.5,587.5C 591.797,591.767 591.464,595.934 590.5,600C 585.845,600.499 581.179,600.666 576.5,600.5C 576.666,606.176 576.499,611.843 576,617.5C 570.928,618.471 565.762,618.805 560.5,618.5C 560.5,601.167 560.5,583.833 560.5,566.5 Z"/></g>
<g><path style="opacity:0.837" fill="#fefefe" d="M 598.5,566.5 C 603.5,566.5 608.5,566.5 613.5,566.5C 613.5,583.833 613.5,601.167 613.5,618.5C 608.025,619.081 602.858,618.414 598,616.5C 597.196,599.789 597.362,583.123 598.5,566.5 Z"/></g>
<g><path style="opacity:0.835" fill="#fefefe" d="M 668.5,566.5 C 673.5,566.5 678.5,566.5 683.5,566.5C 683.5,583.833 683.5,601.167 683.5,618.5C 678.5,618.5 673.5,618.5 668.5,618.5C 668.5,601.167 668.5,583.833 668.5,566.5 Z"/></g>
<g><path style="opacity:0.819" fill="#fefefe" d="M 742.5,566.5 C 747.762,566.195 752.928,566.529 758,567.5C 758.5,579.829 758.667,592.162 758.5,604.5C 764.5,604.5 770.5,604.5 776.5,604.5C 776.5,609.167 776.5,613.833 776.5,618.5C 765.167,618.5 753.833,618.5 742.5,618.5C 742.5,601.167 742.5,583.833 742.5,566.5 Z"/></g>
<g><path style="opacity:0.835" fill="#fefefe" d="M 799.5,566.5 C 804.5,566.5 809.5,566.5 814.5,566.5C 814.5,583.833 814.5,601.167 814.5,618.5C 809.5,618.5 804.5,618.5 799.5,618.5C 799.5,601.167 799.5,583.833 799.5,566.5 Z"/></g>
<g><path style="opacity:0.881" fill="#fefefe" d="M 821.5,565.5 C 823.199,565.34 824.866,565.506 826.5,566C 834.027,573.527 841.527,581.027 849,588.5C 849.202,581.45 849.702,574.45 850.5,567.5C 855.456,566.506 860.456,566.173 865.5,566.5C 865.5,583.833 865.5,601.167 865.5,618.5C 863.143,618.663 860.81,618.497 858.5,618C 851,610.5 843.5,603 836,595.5C 835.5,603.159 835.334,610.826 835.5,618.5C 830.833,618.5 826.167,618.5 821.5,618.5C 821.5,600.833 821.5,583.167 821.5,565.5 Z"/></g>
<g><path style="opacity:0.829" fill="#fefefe" d="M 868.5,566.5 C 881.5,566.5 894.5,566.5 907.5,566.5C 907.5,571.5 907.5,576.5 907.5,581.5C 903.5,581.5 899.5,581.5 895.5,581.5C 895.5,593.833 895.5,606.167 895.5,618.5C 890.5,618.5 885.5,618.5 880.5,618.5C 880.5,606.167 880.5,593.833 880.5,581.5C 876.563,581.793 872.73,581.46 869,580.5C 868.501,575.845 868.334,571.179 868.5,566.5 Z"/></g>
<g><path style="opacity:0.874" fill="#fefefe" d="M 911.5,566.5 C 922.5,566.5 933.5,566.5 944.5,566.5C 944.5,571.5 944.5,576.5 944.5,581.5C 938.167,581.5 931.833,581.5 925.5,581.5C 925.5,583.167 925.5,584.833 925.5,586.5C 930.833,586.5 936.167,586.5 941.5,586.5C 941.5,590.5 941.5,594.5 941.5,598.5C 936.167,598.5 930.833,598.5 925.5,598.5C 925.5,600.5 925.5,602.5 925.5,604.5C 931.833,604.5 938.167,604.5 944.5,604.5C 944.5,609.167 944.5,613.833 944.5,618.5C 933.5,618.5 922.5,618.5 911.5,618.5C 911.5,601.167 911.5,583.833 911.5,566.5 Z"/></g>
<g><path style="opacity:0.891" fill="#fefefe" d="M 950.5,566.5 C 955.167,566.5 959.833,566.5 964.5,566.5C 964.5,579.167 964.5,591.833 964.5,604.5C 970.833,604.5 977.167,604.5 983.5,604.5C 983.5,609.167 983.5,613.833 983.5,618.5C 972.5,618.5 961.5,618.5 950.5,618.5C 950.5,601.167 950.5,583.833 950.5,566.5 Z"/></g>
<g><path style="opacity:0.889" fill="#fefefe" d="M 987.5,566.5 C 992.5,566.5 997.5,566.5 1002.5,566.5C 1002.5,579.167 1002.5,591.833 1002.5,604.5C 1008.5,604.5 1014.5,604.5 1020.5,604.5C 1020.5,609.167 1020.5,613.833 1020.5,618.5C 1009.5,618.5 998.5,618.5 987.5,618.5C 987.5,601.167 987.5,583.833 987.5,566.5 Z"/></g>
<g><path style="opacity:0.837" fill="#fefefe" d="M 1024.5,566.5 C 1029.5,566.5 1034.5,566.5 1039.5,566.5C 1039.5,583.833 1039.5,601.167 1039.5,618.5C 1034.5,618.5 1029.5,618.5 1024.5,618.5C 1024.5,601.167 1024.5,583.833 1024.5,566.5 Z"/></g>
<g><path style="opacity:0.875" fill="#fefefe" d="M 1103.5,566.5 C 1114.5,566.5 1125.5,566.5 1136.5,566.5C 1136.5,571.5 1136.5,576.5 1136.5,581.5C 1130.17,581.5 1123.83,581.5 1117.5,581.5C 1117.5,583.167 1117.5,584.833 1117.5,586.5C 1122.83,586.5 1128.17,586.5 1133.5,586.5C 1133.5,590.5 1133.5,594.5 1133.5,598.5C 1128.17,598.5 1122.83,598.5 1117.5,598.5C 1117.5,600.5 1117.5,602.5 1117.5,604.5C 1123.83,604.5 1130.17,604.5 1136.5,604.5C 1136.5,609.167 1136.5,613.833 1136.5,618.5C 1125.5,618.5 1114.5,618.5 1103.5,618.5C 1103.5,601.167 1103.5,583.833 1103.5,566.5 Z"/></g>
<g><path style="opacity:0.883" fill="#fefefe" d="M 1142.5,565.5 C 1144.2,565.34 1145.87,565.506 1147.5,566C 1155.32,573.633 1163.15,581.133 1171,588.5C 1171.5,581.174 1171.67,573.841 1171.5,566.5C 1176.5,566.5 1181.5,566.5 1186.5,566.5C 1186.5,583.833 1186.5,601.167 1186.5,618.5C 1184.14,618.663 1181.81,618.497 1179.5,618C 1172.32,610.652 1164.99,603.485 1157.5,596.5C 1156.5,603.803 1156.17,611.137 1156.5,618.5C 1151.83,618.5 1147.17,618.5 1142.5,618.5C 1142.5,600.833 1142.5,583.167 1142.5,565.5 Z"/></g>
<g><path style="opacity:0.852" fill="#fefefe" d="M 1241.5,566.5 C 1252.83,566.5 1264.17,566.5 1275.5,566.5C 1275.8,571.43 1275.47,576.263 1274.5,581C 1268.51,581.499 1262.51,581.666 1256.5,581.5C 1256.5,583.167 1256.5,584.833 1256.5,586.5C 1261.83,586.5 1267.17,586.5 1272.5,586.5C 1272.5,590.5 1272.5,594.5 1272.5,598.5C 1267.17,598.5 1261.83,598.5 1256.5,598.5C 1256.5,600.5 1256.5,602.5 1256.5,604.5C 1262.83,604.5 1269.17,604.5 1275.5,604.5C 1275.5,609.167 1275.5,613.833 1275.5,618.5C 1264.17,618.5 1252.83,618.5 1241.5,618.5C 1241.5,601.167 1241.5,583.833 1241.5,566.5 Z"/></g>
<g><path style="opacity:0.856" fill="#fefefe" d="M 1296.5,566.5 C 1301.84,566.334 1307.18,566.501 1312.5,567C 1314.3,571.072 1316.46,574.905 1319,578.5C 1320.65,574.528 1322.48,570.695 1324.5,567C 1329.82,566.501 1335.16,566.334 1340.5,566.5C 1336.51,576.817 1331.68,586.817 1326,596.5C 1325.5,603.826 1325.33,611.159 1325.5,618.5C 1320.83,618.5 1316.17,618.5 1311.5,618.5C 1311.67,611.159 1311.5,603.826 1311,596.5C 1306.35,587.865 1301.68,579.198 1297,570.5C 1296.51,569.207 1296.34,567.873 1296.5,566.5 Z"/></g>
<g><path style="opacity:0.86" fill="#fefefe" d="M 1386.5,566.5 C 1394.17,566.334 1401.84,566.5 1409.5,567C 1424.26,570.616 1428.59,579.449 1422.5,593.5C 1420.98,595.185 1419.32,596.685 1417.5,598C 1422.42,604.357 1426.42,611.191 1429.5,618.5C 1423.82,618.666 1418.16,618.499 1412.5,618C 1408.61,612.383 1405.11,606.549 1402,600.5C 1401.5,606.491 1401.33,612.491 1401.5,618.5C 1396.5,618.5 1391.5,618.5 1386.5,618.5C 1386.5,601.167 1386.5,583.833 1386.5,566.5 Z M 1401.5,580.5 C 1405.54,579.66 1408.54,580.993 1410.5,584.5C 1408.54,588.007 1405.54,589.34 1401.5,588.5C 1401.5,585.833 1401.5,583.167 1401.5,580.5 Z"/></g>
<g><path style="opacity:0.888" fill="#fefefe" d="M 1472.5,566.5 C 1477.5,566.5 1482.5,566.5 1487.5,566.5C 1487.5,583.833 1487.5,601.167 1487.5,618.5C 1482.5,618.5 1477.5,618.5 1472.5,618.5C 1472.5,601.167 1472.5,583.833 1472.5,566.5 Z"/></g>
</svg>
