<?xml version="1.0" encoding="UTF-8"?>
<!DOCTYPE svg PUBLIC "-//W3C//DTD SVG 1.1//EN" "http://www.w3.org/Graphics/SVG/1.1/DTD/svg11.dtd">
<svg xmlns="http://www.w3.org/2000/svg" version="1.1" width="4430px" height="932px" style="shape-rendering:geometricPrecision; text-rendering:geometricPrecision; image-rendering:optimizeQuality; fill-rule:evenodd; clip-rule:evenodd" xmlns:xlink="http://www.w3.org/1999/xlink">
<g><path style="opacity:0.99" fill="#3b92cc" d="M 441.5,-0.5 C 458.167,-0.5 474.833,-0.5 491.5,-0.5C 501.663,0.765504 511.996,1.7655 522.5,2.5C 517.676,2.96499 512.676,3.13166 507.5,3C 541.006,38.0059 574.673,72.8392 608.5,107.5C 582.406,97.6008 555.573,90.2674 528,85.5C 527.5,85.8333 527,86.1667 526.5,86.5C 527.705,89.4496 528.705,92.4496 529.5,95.5C 519.199,86.7172 509.032,77.0506 499,66.5C 478.167,45 457.333,23.5 436.5,2C 434.292,1.80912 432.292,1.30912 430.5,0.5C 434.371,0.814971 438.038,0.481638 441.5,-0.5 Z"/></g>
<g><path style="opacity:0.999" fill="#398ec8" d="M 430.5,0.5 C 432.292,1.30912 434.292,1.80912 436.5,2C 457.333,23.5 478.167,45 499,66.5C 509.032,77.0506 519.199,86.7172 529.5,95.5C 542.935,130.132 555.602,165.132 567.5,200.5C 507.838,140.338 448.671,79.6709 390,18.5C 386.21,14.1971 382.043,10.5305 377.5,7.5C 395.095,4.5923 412.762,2.25897 430.5,0.5 Z"/></g>
<g><path style="opacity:1" fill="#3b94ce" d="M 522.5,2.5 C 525.983,3.01012 529.316,3.67679 532.5,4.5C 531.127,4.34332 529.793,4.50999 528.5,5C 565.637,43.8044 603.137,82.3044 641,120.5C 641.464,121.094 641.631,121.761 641.5,122.5C 630.338,117.677 619.338,112.677 608.5,107.5C 574.673,72.8392 541.006,38.0059 507.5,3C 512.676,3.13166 517.676,2.96499 522.5,2.5 Z"/></g>
<g><path style="opacity:0.999" fill="#3c98d1" d="M 532.5,4.5 C 562.434,8.08258 591.434,15.0826 619.5,25.5C 619.062,25.4346 618.728,25.6012 618.5,26C 715.667,125.833 812.833,225.667 910,325.5C 910.399,325.272 910.565,324.938 910.5,324.5C 919.629,351.028 925.629,378.362 928.5,406.5C 928.665,409.518 928.498,412.518 928,415.5C 892.97,380.138 858.304,344.471 824,308.5C 820.902,304.893 817.402,301.893 813.5,299.5C 775.074,222.075 717.741,163.075 641.5,122.5C 641.631,121.761 641.464,121.094 641,120.5C 603.137,82.3044 565.637,43.8044 528.5,5C 529.793,4.50999 531.127,4.34332 532.5,4.5 Z"/></g>
<g><path style="opacity:1" fill="#388ac5" d="M 377.5,7.5 C 382.043,10.5305 386.21,14.1971 390,18.5C 448.671,79.6709 507.838,140.338 567.5,200.5C 575.204,219.937 582.538,239.604 589.5,259.5C 588.778,259.918 588.278,260.584 588,261.5C 509.667,181.167 431.333,100.833 353,20.5C 351.579,18.5952 350.412,16.5952 349.5,14.5C 358.672,11.8737 368.005,9.54041 377.5,7.5 Z"/></g>
<g><path style="opacity:1" fill="#3888c3" d="M 349.5,14.5 C 350.412,16.5952 351.579,18.5952 353,20.5C 431.333,100.833 509.667,181.167 588,261.5C 588.278,260.584 588.778,259.918 589.5,259.5C 595.029,274.085 600.362,288.752 605.5,303.5C 604.883,303.611 604.383,303.944 604,304.5C 559.833,259 515.667,213.5 471.5,168C 470.906,167.536 470.239,167.369 469.5,167.5C 468.905,164.683 467.572,162.35 465.5,160.5C 443.852,139.852 422.852,118.518 402.5,96.5C 403.733,92.9679 405.067,89.4679 406.5,86C 402.479,86.0349 398.479,86.5349 394.5,87.5C 371.91,65.9089 349.91,43.5756 328.5,20.5C 335.183,17.7425 342.183,15.7425 349.5,14.5 Z"/></g>
<g><path style="opacity:0.999" fill="#3786c2" d="M 328.5,20.5 C 349.91,43.5756 371.91,65.9089 394.5,87.5C 382.003,89.8656 369.67,92.8656 357.5,96.5C 337.899,75.3973 317.732,54.7306 297,34.5C 296.517,33.552 296.351,32.552 296.5,31.5C 306.75,26.9287 317.417,23.262 328.5,20.5 Z"/></g>
<g><path style="opacity:0.999" fill="#3c9ad4" d="M 619.5,25.5 C 638.695,31.2686 657.028,38.9353 674.5,48.5C 673.761,48.369 673.094,48.5357 672.5,49C 744.333,122.833 816.167,196.667 888,270.5C 888.483,269.552 888.649,268.552 888.5,267.5C 897.74,285.666 905.073,304.666 910.5,324.5C 910.565,324.938 910.399,325.272 910,325.5C 812.833,225.667 715.667,125.833 618.5,26C 618.728,25.6012 619.062,25.4346 619.5,25.5 Z"/></g>
<g><path style="opacity:0.999" fill="#3784bf" d="M 296.5,31.5 C 296.351,32.552 296.517,33.552 297,34.5C 317.732,54.7306 337.899,75.3973 357.5,96.5C 348.893,99.369 340.226,102.036 331.5,104.5C 330.127,104.657 328.793,104.49 327.5,104C 307.24,84.2426 287.574,64.076 268.5,43.5C 277.358,38.5421 286.692,34.5421 296.5,31.5 Z"/></g>
<g><path style="opacity:0.998" fill="#3680bc" d="M 268.5,43.5 C 287.574,64.076 307.24,84.2426 327.5,104C 328.793,104.49 330.127,104.657 331.5,104.5C 317.409,110.428 303.409,116.762 289.5,123.5C 270.395,104.226 251.395,84.7263 232.5,65C 231.207,64.51 229.873,64.3433 228.5,64.5C 241.194,56.4841 254.528,49.4841 268.5,43.5 Z"/></g>
<g><path style="opacity:0.999" fill="#3d9cd5" d="M 674.5,48.5 C 770.777,97.1109 842.111,170.111 888.5,267.5C 888.649,268.552 888.483,269.552 888,270.5C 816.167,196.667 744.333,122.833 672.5,49C 673.094,48.5357 673.761,48.369 674.5,48.5 Z"/></g>
<g><path style="opacity:0.998" fill="#357db9" d="M 228.5,64.5 C 229.873,64.3433 231.207,64.51 232.5,65C 251.395,84.7263 270.395,104.226 289.5,123.5C 280.175,128.83 270.841,134.163 261.5,139.5C 241.518,120.518 222.185,100.851 203.5,80.5C 211.288,74.4319 219.621,69.0985 228.5,64.5 Z"/></g>
<g><path style="opacity:0.997" fill="#347ab6" d="M 203.5,80.5 C 222.185,100.851 241.518,120.518 261.5,139.5C 248.361,148.576 235.361,157.909 222.5,167.5C 221.588,165.405 220.421,163.405 219,161.5C 201.244,143.911 183.744,126.245 166.5,108.5C 178.242,98.4298 190.575,89.0964 203.5,80.5 Z"/></g>
<g><path style="opacity:0.999" fill="#3786c2" d="M 402.5,96.5 C 422.852,118.518 443.852,139.852 465.5,160.5C 461.833,171.167 458.167,181.833 454.5,192.5C 453.504,192.414 452.671,192.748 452,193.5C 432.167,173 412.333,152.5 392.5,132C 391.552,131.517 390.552,131.351 389.5,131.5C 394.03,119.911 398.363,108.244 402.5,96.5 Z"/></g>
<g><path style="opacity:0.999" fill="#3377b3" d="M 166.5,108.5 C 183.744,126.245 201.244,143.911 219,161.5C 220.421,163.405 221.588,165.405 222.5,167.5C 218.485,171.513 214.152,175.179 209.5,178.5C 191.197,158.863 172.53,139.53 153.5,120.5C 157.207,115.792 161.54,111.792 166.5,108.5 Z"/></g>
<g><path style="opacity:0.998" fill="#3373b0" d="M 153.5,120.5 C 172.53,139.53 191.197,158.863 209.5,178.5C 194.072,193.59 179.405,209.257 165.5,225.5C 147.2,205.199 128.534,185.199 109.5,165.5C 122.82,149.18 137.486,134.18 153.5,120.5 Z"/></g>
<g><path style="opacity:0.998" fill="#3784bf" d="M 389.5,131.5 C 390.552,131.351 391.552,131.517 392.5,132C 412.333,152.5 432.167,173 452,193.5C 452.671,192.748 453.504,192.414 454.5,192.5C 450.637,202.089 446.97,211.755 443.5,221.5C 442.883,221.611 442.383,221.944 442,222.5C 421.667,201.5 401.333,180.5 381,159.5C 380.667,160.167 380.333,160.833 380,161.5C 379.601,161.272 379.435,160.938 379.5,160.5C 382.833,150.833 386.167,141.167 389.5,131.5 Z"/></g>
<g><path style="opacity:0.998" fill="#3680bc" d="M 443.5,221.5 C 437.179,236.785 432.513,252.451 429.5,268.5C 408.142,245.809 386.475,223.476 364.5,201.5C 369.265,187.658 374.265,173.991 379.5,160.5C 379.435,160.938 379.601,161.272 380,161.5C 380.333,160.833 380.667,160.167 381,159.5C 401.333,180.5 421.667,201.5 442,222.5C 442.383,221.944 442.883,221.611 443.5,221.5 Z"/></g>
<g><path style="opacity:1" fill="#3270ad" d="M 109.5,165.5 C 128.534,185.199 147.2,205.199 165.5,225.5C 164.2,228.432 162.2,230.766 159.5,232.5C 143.956,214.451 127.456,197.118 110,180.5C 108.71,178.208 107.043,176.208 105,174.5C 104.517,173.552 104.351,172.552 104.5,171.5C 106.177,169.46 107.844,167.46 109.5,165.5 Z"/></g>
<g><path style="opacity:0.999" fill="#3786c2" d="M 469.5,167.5 C 470.239,167.369 470.906,167.536 471.5,168C 515.667,213.5 559.833,259 604,304.5C 604.383,303.944 604.883,303.611 605.5,303.5C 614.563,327.689 623.23,352.022 631.5,376.5C 627.197,373.744 623.03,370.077 619,365.5C 578.667,323.833 538.333,282.167 498,240.5C 497.617,241.056 497.117,241.389 496.5,241.5C 487.501,216.838 478.501,192.172 469.5,167.5 Z"/></g>
<g><path style="opacity:1" fill="#316eab" d="M 104.5,171.5 C 104.351,172.552 104.517,173.552 105,174.5C 107.043,176.208 108.71,178.208 110,180.5C 127.456,197.118 143.956,214.451 159.5,232.5C 151.595,243.967 143.928,255.634 136.5,267.5C 135.25,267.577 134.417,268.244 134,269.5C 115.529,250.028 96.6954,230.862 77.5,212C 76.9056,211.536 76.2389,211.369 75.5,211.5C 84.1996,197.421 93.8663,184.088 104.5,171.5 Z"/></g>
<g><path style="opacity:0.995" fill="#264b8b" d="M 2323.5,183.5 C 2325.83,183.5 2328.17,183.5 2330.5,183.5C 2330.33,252.834 2330.5,322.167 2331,391.5C 2357.76,362.908 2383.6,333.575 2408.5,303.5C 2437.17,302.167 2465.83,302.167 2494.5,303.5C 2462.31,341.367 2428.64,378.033 2393.5,413.5C 2434.95,455.598 2469.95,502.431 2498.5,554C 2470.16,554.833 2441.83,554.667 2413.5,553.5C 2395.55,523.257 2375.38,494.59 2353,467.5C 2345.97,460.135 2338.64,453.135 2331,446.5C 2330.5,482.498 2330.33,518.498 2330.5,554.5C 2306.5,554.5 2282.5,554.5 2258.5,554.5C 2258.5,434.5 2258.5,314.5 2258.5,194.5C 2280.35,191.137 2302.01,187.471 2323.5,183.5 Z"/></g>
<g><path style="opacity:0.993" fill="#264b8b" d="M 3692.5,183.5 C 3694.83,183.5 3697.17,183.5 3699.5,183.5C 3699.17,224.839 3699.5,266.172 3700.5,307.5C 3727.46,296.778 3755.12,294.611 3783.5,301C 3810.45,308.292 3830.62,324.125 3844,348.5C 3858.58,379.202 3864.25,411.535 3861,445.5C 3855.24,508.59 3821.4,546.423 3759.5,559C 3734.14,562.181 3708.81,561.848 3683.5,558C 3664.61,555.589 3645.94,552.089 3627.5,547.5C 3627.5,429.833 3627.5,312.167 3627.5,194.5C 3649.35,191.137 3671.01,187.471 3692.5,183.5 Z M 3730.5,358.5 C 3764.14,356.964 3782.97,372.964 3787,406.5C 3790.95,430.294 3787.62,452.961 3777,474.5C 3767.68,489.415 3754.18,497.581 3736.5,499C 3724.13,499.442 3711.8,498.942 3699.5,497.5C 3699.33,454.499 3699.5,411.499 3700,368.5C 3709.69,363.377 3719.86,360.044 3730.5,358.5 Z"/></g>
<g><path style="opacity:0.994" fill="#264b8b" d="M 4118.5,183.5 C 4120.83,183.5 4123.17,183.5 4125.5,183.5C 4125.02,280.188 4125.52,376.855 4127,473.5C 4129.28,485.784 4136.45,493.618 4148.5,497C 4153.73,498.546 4159.06,499.38 4164.5,499.5C 4161.5,519.497 4158.5,539.497 4155.5,559.5C 4135.65,560.07 4116.32,557.236 4097.5,551C 4078.64,544.141 4065.81,531.307 4059,512.5C 4056.12,502.025 4054.46,491.358 4054,480.5C 4053.5,385.167 4053.33,289.834 4053.5,194.5C 4075.35,191.137 4097.01,187.471 4118.5,183.5 Z"/></g>
<g><path style="opacity:0.989" fill="#264b8b" d="M 2151.5,187.5 C 2176.93,186.438 2192.76,198.105 2199,222.5C 2202.06,248.751 2190.9,265.251 2165.5,272C 2145.92,274.954 2130.42,268.454 2119,252.5C 2111.06,235.597 2112.06,219.263 2122,203.5C 2130.15,194.807 2139.98,189.474 2151.5,187.5 Z"/></g>
<g><path style="opacity:0.988" fill="#264b8b" d="M 3946.5,187.5 C 3964.43,186.409 3978.59,193.076 3989,207.5C 3998.31,227.402 3995.81,245.569 3981.5,262C 3966.53,273.191 3950.2,275.524 3932.5,269C 3912.47,257.96 3904.97,241.127 3910,218.5C 3915.62,200.373 3927.79,190.04 3946.5,187.5 Z"/></g>
<g><path style="opacity:0.997" fill="#357db9" d="M 364.5,201.5 C 386.475,223.476 408.142,245.809 429.5,268.5C 427.831,281.849 426.165,295.182 424.5,308.5C 401.231,284.062 377.731,259.729 354,235.5C 353.517,234.552 353.351,233.552 353.5,232.5C 356.595,221.877 360.262,211.543 364.5,201.5 Z"/></g>
<g><path style="opacity:0.996" fill="#306ba9" d="M 75.5,211.5 C 76.2389,211.369 76.9056,211.536 77.5,212C 96.6954,230.862 115.529,250.028 134,269.5C 134.417,268.244 135.25,267.577 136.5,267.5C 132.152,274.869 127.819,282.202 123.5,289.5C 111.586,279.09 100.086,268.09 89,256.5C 80.6045,247.609 72.4378,238.609 64.5,229.5C 67.3808,222.967 71.0474,216.967 75.5,211.5 Z"/></g>
<g><path style="opacity:0.994" fill="#264b8b" d="M 1115.5,222.5 C 1139.74,222.172 1163.91,222.506 1188,223.5C 1237.8,331.264 1281.63,441.431 1319.5,554C 1292.49,554.833 1265.49,554.667 1238.5,553.5C 1230.89,530.35 1222.89,507.35 1214.5,484.5C 1171.84,483.333 1129.17,483.167 1086.5,484C 1078.21,507.038 1070.21,530.204 1062.5,553.5C 1036.51,554.5 1010.51,554.833 984.5,554.5C 1021.51,441.151 1065.18,330.484 1115.5,222.5 Z M 1149.5,300.5 C 1165.98,340.266 1181.32,380.6 1195.5,421.5C 1165.17,422.833 1134.83,422.833 1104.5,421.5C 1120.1,381.363 1135.1,341.03 1149.5,300.5 Z"/></g>
<g><path style="opacity:0.993" fill="#264b8b" d="M 2930.5,222.5 C 2954.74,222.172 2978.91,222.506 3003,223.5C 3035.37,287.285 3065.04,352.285 3092,418.5C 3119.22,352.397 3148.88,287.397 3181,223.5C 3203.76,222.34 3226.59,222.173 3249.5,223C 3255.94,266.939 3260.78,311.105 3264,355.5C 3268.79,421.804 3272.96,488.137 3276.5,554.5C 3251.83,554.5 3227.17,554.5 3202.5,554.5C 3201.24,482.057 3197.74,409.724 3192,337.5C 3166.89,395.384 3142.06,453.384 3117.5,511.5C 3099.5,512.833 3081.5,512.833 3063.5,511.5C 3038.76,453.459 3013.93,395.459 2989,337.5C 2983.24,409.734 2979.41,482.067 2977.5,554.5C 2953.17,554.5 2928.83,554.5 2904.5,554.5C 2908.97,443.492 2917.63,332.825 2930.5,222.5 Z"/></g>
<g><path style="opacity:0.997" fill="#3066a5" d="M 64.5,229.5 C 72.4378,238.609 80.6045,247.609 89,256.5C 100.086,268.09 111.586,279.09 123.5,289.5C 111.314,314.736 101.314,340.736 93.5,367.5C 92.7784,367.918 92.2784,368.584 92,369.5C 72.6953,349.195 53.0287,329.195 33,309.5C 31.1207,307.473 29.954,305.14 29.5,302.5C 38.6978,276.865 50.3645,252.531 64.5,229.5 Z"/></g>
<g><path style="opacity:0.997" fill="#347ab6" d="M 353.5,232.5 C 353.351,233.552 353.517,234.552 354,235.5C 377.731,259.729 401.231,284.062 424.5,308.5C 422.743,328.514 422.41,348.514 423.5,368.5C 422.778,368.918 422.278,369.584 422,370.5C 392.546,340.884 363.713,310.884 335.5,280.5C 340.987,264.214 346.987,248.214 353.5,232.5 Z"/></g>
<g><path style="opacity:0.998" fill="#3784bf" d="M 631.5,376.5 C 639.405,396.206 646.738,416.206 653.5,436.5C 653.631,437.239 653.464,437.906 653,438.5C 608.471,393.638 564.304,348.471 520.5,303C 519.906,302.536 519.239,302.369 518.5,302.5C 511.168,282.172 503.835,261.838 496.5,241.5C 497.117,241.389 497.617,241.056 498,240.5C 538.333,282.167 578.667,323.833 619,365.5C 623.03,370.077 627.197,373.744 631.5,376.5 Z"/></g>
<g><path style="opacity:1" fill="#3377b3" d="M 335.5,280.5 C 363.713,310.884 392.546,340.884 422,370.5C 422.278,369.584 422.778,368.918 423.5,368.5C 423.505,378.552 424.172,388.552 425.5,398.5C 416.254,390.759 407.421,382.426 399,373.5C 374.878,349.217 351.378,324.55 328.5,299.5C 330.637,293.09 332.97,286.756 335.5,280.5 Z"/></g>
<g><path style="opacity:0.993" fill="#264b8b" d="M 2610.5,295.5 C 2635.23,294.258 2659.23,297.758 2682.5,306C 2706.52,317.034 2721.36,335.534 2727,361.5C 2728.32,367.782 2729.32,374.115 2730,380.5C 2730.83,436.404 2730.66,492.237 2729.5,548C 2681.01,559.874 2632.01,562.874 2582.5,557C 2537.86,549.198 2514.86,522.698 2513.5,477.5C 2513.88,444.315 2529.21,421.148 2559.5,408C 2588.08,398.098 2617.42,395.098 2647.5,399C 2651.93,399.417 2656.26,400.251 2660.5,401.5C 2663.6,375.097 2651.93,360.264 2625.5,357C 2598.84,354.965 2572.84,358.132 2547.5,366.5C 2543.66,347.814 2540.33,328.98 2537.5,310C 2537.83,309.167 2538.17,308.333 2538.5,307.5C 2562.24,301.099 2586.24,297.099 2610.5,295.5 Z M 2621.5,446.5 C 2634.83,445.984 2648,446.984 2661,449.5C 2661.5,467.164 2661.67,484.83 2661.5,502.5C 2645.16,504.122 2628.83,504.289 2612.5,503C 2587.17,497.834 2579.67,483.334 2590,459.5C 2598.93,451.154 2609.43,446.82 2621.5,446.5 Z"/></g>
<g><path style="opacity:0.993" fill="#264b8b" d="M 3441.5,295.5 C 3508,294.635 3550.5,325.969 3569,389.5C 3578.12,430.357 3573.12,469.357 3554,506.5C 3533.13,538.966 3503.3,557.133 3464.5,561C 3418.07,565.763 3380.24,550.263 3351,514.5C 3331.41,484.802 3323.08,452.136 3326,416.5C 3332.48,345.196 3370.98,304.863 3441.5,295.5 Z M 3444.5,357.5 C 3467.63,356.47 3483.79,366.47 3493,387.5C 3502.97,415.613 3502.64,443.613 3492,471.5C 3477.19,498.884 3455.35,506.384 3426.5,494C 3410.29,482.086 3401.45,465.919 3400,445.5C 3396.76,423.258 3399.76,401.924 3409,381.5C 3417.08,367.881 3428.92,359.881 3444.5,357.5 Z"/></g>
<g><path style="opacity:0.993" fill="#264b8b" d="M 4429.5,412.5 C 4429.5,420.833 4429.5,429.167 4429.5,437.5C 4428.51,442.305 4428.18,447.305 4428.5,452.5C 4374.5,452.5 4320.5,452.5 4266.5,452.5C 4271.42,476.255 4285.75,491.088 4309.5,497C 4342.32,502.084 4374.32,498.918 4405.5,487.5C 4408.12,506.382 4411.12,525.215 4414.5,544C 4414.25,545.326 4413.58,546.326 4412.5,547C 4373.48,560.608 4333.48,564.608 4292.5,559C 4239.62,549.12 4207.45,517.954 4196,465.5C 4189.36,430.802 4192.7,397.136 4206,364.5C 4228.09,320.137 4264.09,297.137 4314,295.5C 4372.96,296.15 4409.96,324.817 4425,381.5C 4427.03,391.907 4428.53,402.241 4429.5,412.5 Z M 4309.5,355.5 C 4331.49,354.238 4346.99,363.572 4356,383.5C 4358.13,389.663 4359.3,395.996 4359.5,402.5C 4328.49,402.833 4297.49,402.5 4266.5,401.5C 4268.67,391.147 4272.51,381.48 4278,372.5C 4286.26,362.457 4296.76,356.79 4309.5,355.5 Z"/></g>
<g><path style="opacity:0.996" fill="#264b8b" d="M 1437.5,297.5 C 1465.4,295.674 1492.73,298.674 1519.5,306.5C 1519.83,307.333 1520.17,308.167 1520.5,309C 1516.51,328.12 1512.84,347.286 1509.5,366.5C 1497.89,364.144 1486.22,361.977 1474.5,360C 1459.05,358.895 1443.71,359.728 1428.5,362.5C 1428.5,426.5 1428.5,490.5 1428.5,554.5C 1404.5,554.5 1380.5,554.5 1356.5,554.5C 1356.33,475.166 1356.5,395.833 1357,316.5C 1383.14,306.756 1409.97,300.422 1437.5,297.5 Z"/></g>
<g><path style="opacity:0.992" fill="#264b8b" d="M 1932.5,296.5 C 1957.61,294.903 1981.95,298.403 2005.5,307C 2031.55,319.879 2047.38,340.712 2053,369.5C 2055.15,380.063 2056.49,390.729 2057,401.5C 2057.5,452.499 2057.67,503.499 2057.5,554.5C 2033.5,554.5 2009.5,554.5 1985.5,554.5C 1985.67,505.832 1985.5,457.166 1985,408.5C 1984.95,394.908 1981.62,382.241 1975,370.5C 1965.17,360.909 1953.33,356.909 1939.5,358.5C 1930.11,358.506 1920.78,359.173 1911.5,360.5C 1911.5,425.167 1911.5,489.833 1911.5,554.5C 1887.5,554.5 1863.5,554.5 1839.5,554.5C 1839.33,473.499 1839.5,392.499 1840,311.5C 1870.39,303.074 1901.22,298.074 1932.5,296.5 Z"/></g>
<g><path style="opacity:0.998" fill="#3373b0" d="M 328.5,299.5 C 351.378,324.55 374.878,349.217 399,373.5C 407.421,382.426 416.254,390.759 425.5,398.5C 431.514,451.22 449.181,499.553 478.5,543.5C 478.631,544.239 478.464,544.906 478,545.5C 420.327,485.661 362.494,425.994 304.5,366.5C 312.224,344.055 320.224,321.721 328.5,299.5 Z"/></g>
<g><path style="opacity:1" fill="#3b94ce" d="M 813.5,299.5 C 817.402,301.893 820.902,304.893 824,308.5C 858.304,344.471 892.97,380.138 928,415.5C 928.498,412.518 928.665,409.518 928.5,406.5C 929.879,412.617 930.546,418.95 930.5,425.5C 930.666,429.514 930.499,433.514 930,437.5C 894.847,402.197 860.681,366.863 827.5,331.5C 823.045,320.822 818.378,310.156 813.5,299.5 Z"/></g>
<g><path style="opacity:0.998" fill="#3680bc" d="M 518.5,302.5 C 519.239,302.369 519.906,302.536 520.5,303C 564.304,348.471 608.471,393.638 653,438.5C 653.464,437.906 653.631,437.239 653.5,436.5C 665.738,468.662 677.738,500.995 689.5,533.5C 683.258,528.764 677.424,523.431 672,517.5C 632.299,476.301 592.466,435.301 552.5,394.5C 540.991,363.98 529.658,333.314 518.5,302.5 Z"/></g>
<g><path style="opacity:0.993" fill="#264b8b" d="M 1556.5,302.5 C 1580.17,302.5 1603.83,302.5 1627.5,302.5C 1627.1,353.18 1627.6,403.847 1629,454.5C 1629.67,465.523 1632.67,475.856 1638,485.5C 1647.85,496.064 1660.02,500.398 1674.5,498.5C 1683.56,498.522 1692.56,497.855 1701.5,496.5C 1701.5,431.833 1701.5,367.167 1701.5,302.5C 1725.5,302.5 1749.5,302.5 1773.5,302.5C 1773.83,383.836 1773.5,465.169 1772.5,546.5C 1726.9,559.43 1680.57,563.264 1633.5,558C 1596.05,551.548 1572.22,530.048 1562,493.5C 1559.68,483.609 1558.02,473.609 1557,463.5C 1556.5,409.834 1556.33,356.168 1556.5,302.5 Z"/></g>
<g><path style="opacity:0.996" fill="#264b8b" d="M 2120.5,302.5 C 2144.5,302.5 2168.5,302.5 2192.5,302.5C 2192.5,386.5 2192.5,470.5 2192.5,554.5C 2168.5,554.5 2144.5,554.5 2120.5,554.5C 2120.5,470.5 2120.5,386.5 2120.5,302.5 Z"/></g>
<g><path style="opacity:0.994" fill="#264b8b" d="M 3915.5,302.5 C 3939.5,302.5 3963.5,302.5 3987.5,302.5C 3987.5,386.5 3987.5,470.5 3987.5,554.5C 3963.5,554.5 3939.5,554.5 3915.5,554.5C 3915.5,470.5 3915.5,386.5 3915.5,302.5 Z"/></g>
<g><path style="opacity:0.996" fill="#2e609f" d="M 29.5,302.5 C 29.954,305.14 31.1207,307.473 33,309.5C 53.0287,329.195 72.6953,349.195 92,369.5C 92.2784,368.584 92.7784,367.918 93.5,367.5C 87.7745,391.52 84.1079,415.853 82.5,440.5C 81.7784,440.918 81.2784,441.584 81,442.5C 58.3618,418.861 35.3618,395.528 12,372.5C 11.2086,371.255 10.7086,369.922 10.5,368.5C 14.676,345.783 21.0093,323.783 29.5,302.5 Z"/></g>
<g><path style="opacity:0.99" fill="#3b92cc" d="M 930.5,425.5 C 933.066,454.676 933.066,484.01 930.5,513.5C 929.736,511.26 928.902,508.927 928,506.5C 902.333,480.167 876.667,453.833 851,427.5C 850.79,429.058 850.29,430.391 849.5,431.5C 846.585,397.174 839.251,363.841 827.5,331.5C 860.681,366.863 894.847,402.197 930,437.5C 930.499,433.514 930.666,429.514 930.5,425.5 Z"/></g>
<g><path style="opacity:1" fill="#3270ad" d="M 304.5,366.5 C 362.494,425.994 420.327,485.661 478,545.5C 478.464,544.906 478.631,544.239 478.5,543.5C 510.336,589.338 548.67,629.005 593.5,662.5C 593.062,662.435 592.728,662.601 592.5,663C 647.453,718.782 701.786,774.949 755.5,831.5C 753.858,832.803 752.191,834.136 750.5,835.5C 749.448,835.649 748.448,835.483 747.5,835C 599,682.5 450.5,530 302,377.5C 301.31,378.738 300.81,378.738 300.5,377.5C 301.462,373.605 302.796,369.939 304.5,366.5 Z"/></g>
<g><path style="opacity:1" fill="#2d5c9c" d="M 10.5,368.5 C 10.7086,369.922 11.2086,371.255 12,372.5C 35.3618,395.528 58.3618,418.861 81,442.5C 81.2784,441.584 81.7784,440.918 82.5,440.5C 81.5704,451.128 81.237,461.795 81.5,472.5C 80.6981,471.048 80.1981,469.382 80,467.5C 55.6667,442.5 31.3333,417.5 7,392.5C 6.72158,393.416 6.22158,394.082 5.5,394.5C 6.53773,385.588 8.2044,376.922 10.5,368.5 Z"/></g>
<g><path style="opacity:1" fill="#316eab" d="M 300.5,377.5 C 300.81,378.738 301.31,378.738 302,377.5C 450.5,530 599,682.5 747.5,835C 748.448,835.483 749.448,835.649 750.5,835.5C 739.075,844.58 727.075,852.914 714.5,860.5C 712.774,860.815 711.107,860.981 709.5,861C 690.885,842.263 672.385,823.43 654,804.5C 653.536,803.906 653.369,803.239 653.5,802.5C 654.749,800.864 656.416,799.697 658.5,799C 650.104,794.14 641.77,789.307 633.5,784.5C 633.938,784.565 634.272,784.399 634.5,784C 625.636,775.47 617.136,766.637 609,757.5C 530.299,676.634 451.466,595.967 372.5,515.5C 365.409,499.399 359.576,482.732 355,465.5C 352.394,472.486 349.894,479.486 347.5,486.5C 346.448,486.649 345.448,486.483 344.5,486C 326.029,466.528 307.195,447.362 288,428.5C 285.758,426.262 284.591,423.929 284.5,421.5C 289.32,406.55 294.653,391.883 300.5,377.5 Z"/></g>
<g><path style="opacity:0.996" fill="#2c5a99" d="M 81.5,472.5 C 81.9301,495.37 84.2634,518.037 88.5,540.5C 86.2843,539.797 84.451,538.464 83,536.5C 56.3639,508.196 29.3639,480.196 2,452.5C 1.61742,453.056 1.11742,453.389 0.5,453.5C 0.58864,433.679 2.25531,414.012 5.5,394.5C 6.22158,394.082 6.72158,393.416 7,392.5C 31.3333,417.5 55.6667,442.5 80,467.5C 80.1981,469.382 80.6981,471.048 81.5,472.5 Z"/></g>
<g><path style="opacity:0.998" fill="#357db9" d="M 552.5,394.5 C 592.466,435.301 632.299,476.301 672,517.5C 677.424,523.431 683.258,528.764 689.5,533.5C 698.167,557.833 706.833,582.167 715.5,606.5C 681.838,573.004 648.671,539.004 616,504.5C 604.333,492.833 592.667,481.167 581,469.5C 580.617,470.056 580.117,470.389 579.5,470.5C 570.102,445.306 561.102,419.973 552.5,394.5 Z"/></g>
<g><path style="opacity:0.995" fill="#306ba9" d="M 284.5,421.5 C 284.591,423.929 285.758,426.262 288,428.5C 307.195,447.362 326.029,466.528 344.5,486C 345.448,486.483 346.448,486.649 347.5,486.5C 344.405,495.009 341.072,503.342 337.5,511.5C 316.84,490.673 296.34,469.673 276,448.5C 275.536,447.906 275.369,447.239 275.5,446.5C 277.929,437.875 280.929,429.542 284.5,421.5 Z"/></g>
<g><path style="opacity:0.999" fill="#398ec9" d="M 930.5,513.5 C 928.393,530.58 925.727,547.58 922.5,564.5C 911.92,555.424 901.754,545.758 892,535.5C 878.667,521.5 865.333,507.5 852,493.5C 851.722,494.416 851.222,495.082 850.5,495.5C 852.05,474.122 851.717,452.788 849.5,431.5C 850.29,430.391 850.79,429.058 851,427.5C 876.667,453.833 902.333,480.167 928,506.5C 928.902,508.927 929.736,511.26 930.5,513.5 Z"/></g>
<g><path style="opacity:0.994" fill="#3066a5" d="M 275.5,446.5 C 275.369,447.239 275.536,447.906 276,448.5C 296.34,469.673 316.84,490.673 337.5,511.5C 328.565,537.973 319.231,564.306 309.5,590.5C 308.448,590.649 307.448,590.483 306.5,590C 286.299,568.967 265.966,548.134 245.5,527.5C 255.128,500.276 265.128,473.276 275.5,446.5 Z"/></g>
<g><path style="opacity:0.999" fill="#2b5696" d="M 88.5,540.5 C 96.125,576.375 108.125,610.709 124.5,643.5C 84.5338,602.699 44.7005,561.699 5,520.5C 4.72158,521.416 4.22158,522.082 3.5,522.5C 0.90478,499.591 -0.0952198,476.591 0.5,453.5C 1.11742,453.389 1.61742,453.056 2,452.5C 29.3639,480.196 56.3639,508.196 83,536.5C 84.451,538.464 86.2843,539.797 88.5,540.5 Z"/></g>
<g><path style="opacity:0.998" fill="#347ab6" d="M 715.5,606.5 C 728.68,640.883 741.347,675.55 753.5,710.5C 708.172,665.031 663.172,619.198 618.5,573C 617.906,572.536 617.239,572.369 616.5,572.5C 604.559,538.342 592.226,504.342 579.5,470.5C 580.117,470.389 580.617,470.056 581,469.5C 592.667,481.167 604.333,492.833 616,504.5C 648.671,539.004 681.838,573.004 715.5,606.5 Z"/></g>
<g><path style="opacity:1" fill="#388ac5" d="M 922.5,564.5 C 919.838,575.146 917.172,585.813 914.5,596.5C 891.47,573.471 868.804,550.138 846.5,526.5C 847.92,516.135 849.254,505.802 850.5,495.5C 851.222,495.082 851.722,494.416 852,493.5C 865.333,507.5 878.667,521.5 892,535.5C 901.754,545.758 911.92,555.424 922.5,564.5 Z"/></g>
<g><path style="opacity:0.996" fill="#306ba9" d="M 372.5,515.5 C 451.466,595.967 530.299,676.634 609,757.5C 617.136,766.637 625.636,775.47 634.5,784C 634.272,784.399 633.938,784.565 633.5,784.5C 603.505,768.174 574.839,749.84 547.5,729.5C 547.611,728.883 547.944,728.383 548.5,728C 504.029,681.862 459.196,636.029 414,590.5C 413.601,590.728 413.435,591.062 413.5,591.5C 396.736,567.982 383.07,542.648 372.5,515.5 Z"/></g>
<g><path style="opacity:1" fill="#2a5293" d="M 124.5,643.5 C 138.933,670.02 156.1,694.687 176,717.5C 177.956,713.107 179.789,708.774 181.5,704.5C 182.117,704.389 182.617,704.056 183,703.5C 213.053,735.718 243.886,767.052 275.5,797.5C 274.402,798.397 274.402,799.23 275.5,800C 277.86,801.18 280.193,802.347 282.5,803.5C 282.351,804.552 282.517,805.552 283,806.5C 322.006,847.006 361.173,887.339 400.5,927.5C 377.622,924.394 355.289,919.394 333.5,912.5C 331.913,909.732 330.08,907.065 328,904.5C 223.966,797.634 119.799,690.967 15.5,584.5C 9.83832,564.191 5.83832,543.524 3.5,522.5C 4.22158,522.082 4.72158,521.416 5,520.5C 44.7005,561.699 84.5338,602.699 124.5,643.5 Z"/></g>
<g><path style="opacity:0.995" fill="#2e609f" d="M 245.5,527.5 C 265.966,548.134 286.299,568.967 306.5,590C 307.448,590.483 308.448,590.649 309.5,590.5C 302.009,610.981 294.343,631.315 286.5,651.5C 285.883,651.611 285.383,651.944 285,652.5C 264.605,631.274 244.105,610.274 223.5,589.5C 230.634,568.764 237.967,548.098 245.5,527.5 Z"/></g>
<g><path style="opacity:1" fill="#3888c3" d="M 846.5,526.5 C 868.804,550.138 891.47,573.471 914.5,596.5C 912.641,602.301 910.641,607.968 908.5,613.5C 907.778,613.918 907.278,614.584 907,615.5C 889.696,597.195 872.029,579.195 854,561.5C 849.897,556.912 846.064,552.246 842.5,547.5C 843.94,540.527 845.273,533.527 846.5,526.5 Z"/></g>
<g><path style="opacity:0.999" fill="#3786c2" d="M 842.5,547.5 C 846.064,552.246 849.897,556.912 854,561.5C 872.029,579.195 889.696,597.195 907,615.5C 907.278,614.584 907.778,613.918 908.5,613.5C 905.005,625.488 900.671,637.155 895.5,648.5C 874.833,627.167 853.833,606.167 832.5,585.5C 836.146,572.916 839.479,560.249 842.5,547.5 Z"/></g>
<g><path style="opacity:0.999" fill="#3377b3" d="M 616.5,572.5 C 617.239,572.369 617.906,572.536 618.5,573C 663.172,619.198 708.172,665.031 753.5,710.5C 754.594,712.359 755.427,714.359 756,716.5C 756.77,717.598 757.603,717.598 758.5,716.5C 777.5,735.833 796.5,755.167 815.5,774.5C 812.391,778.397 809.057,782.064 805.5,785.5C 803.983,785.511 802.816,786.177 802,787.5C 750.637,735.137 699.637,682.471 649,629.5C 643.909,623.902 638.409,618.902 632.5,614.5C 626.991,600.648 621.657,586.648 616.5,572.5 Z"/></g>
<g><path style="opacity:1" fill="#294f90" d="M 15.5,584.5 C 119.799,690.967 223.966,797.634 328,904.5C 330.08,907.065 331.913,909.732 333.5,912.5C 313.008,907.117 293.341,899.784 274.5,890.5C 268.898,883.725 263.065,877.058 257,870.5C 183.299,794.634 109.466,718.967 35.5,643.5C 26.8682,624.606 20.2015,604.94 15.5,584.5 Z"/></g>
<g><path style="opacity:0.998" fill="#3784bf" d="M 832.5,585.5 C 853.833,606.167 874.833,627.167 895.5,648.5C 892.045,657.411 888.045,666.077 883.5,674.5C 862.518,654.518 842.185,633.851 822.5,612.5C 825.598,603.324 828.931,594.324 832.5,585.5 Z"/></g>
<g><path style="opacity:1" fill="#2d5c9c" d="M 223.5,589.5 C 244.105,610.274 264.605,631.274 285,652.5C 285.383,651.944 285.883,651.611 286.5,651.5C 284.405,659.126 281.738,666.459 278.5,673.5C 273.232,667.058 267.732,660.725 262,654.5C 246.604,639.272 231.438,623.938 216.5,608.5C 218.262,601.873 220.595,595.539 223.5,589.5 Z"/></g>
<g><path style="opacity:0.995" fill="#3066a5" d="M 547.5,729.5 C 518.845,707.961 491.845,684.295 466.5,658.5C 450.714,674.96 434.047,690.293 416.5,704.5C 416.631,703.761 416.464,703.094 416,702.5C 397.633,683.3 379.133,664.3 360.5,645.5C 379.263,629.239 397.263,612.073 414.5,594C 413.748,593.329 413.414,592.496 413.5,591.5C 413.435,591.062 413.601,590.728 414,590.5C 459.196,636.029 504.029,681.862 548.5,728C 547.944,728.383 547.611,728.883 547.5,729.5 Z"/></g>
<g><path style="opacity:0.968" fill="#3a91cb" d="M 1235.5,600.5 C 1237.17,600.5 1238.83,600.5 1240.5,600.5C 1240.83,624.842 1240.5,649.176 1239.5,673.5C 1227.57,677.888 1215.91,677.388 1204.5,672C 1196.37,664.615 1193.2,655.448 1195,644.5C 1198.23,626.625 1208.73,619.958 1226.5,624.5C 1226.5,617.167 1226.5,609.833 1226.5,602.5C 1229.69,602.142 1232.69,601.475 1235.5,600.5 Z M 1218.5,635.5 C 1220.8,636.163 1223.14,636.83 1225.5,637.5C 1226.5,645.807 1226.83,654.14 1226.5,662.5C 1215.77,664.624 1210.11,660.124 1209.5,649C 1209.21,642.022 1212.21,637.522 1218.5,635.5 Z"/></g>
<g><path style="opacity:0.966" fill="#3a91cb" d="M 1402.5,600.5 C 1404.17,600.5 1405.83,600.5 1407.5,600.5C 1407.5,608.167 1407.5,615.833 1407.5,623.5C 1416.11,621.683 1423.94,623.35 1431,628.5C 1432.89,631.618 1434.23,634.951 1435,638.5C 1435.5,650.495 1435.67,662.495 1435.5,674.5C 1430.5,674.5 1425.5,674.5 1420.5,674.5C 1420.67,663.162 1420.5,651.828 1420,640.5C 1418.86,637.528 1416.69,635.861 1413.5,635.5C 1411.59,636.348 1409.59,636.682 1407.5,636.5C 1407.5,649.167 1407.5,661.833 1407.5,674.5C 1402.5,674.5 1397.5,674.5 1392.5,674.5C 1392.5,650.5 1392.5,626.5 1392.5,602.5C 1396.04,602.247 1399.37,601.581 1402.5,600.5 Z"/></g>
<g><path style="opacity:0.969" fill="#3a91cb" d="M 2017.5,600.5 C 2019.17,600.5 2020.83,600.5 2022.5,600.5C 2022.33,619.503 2022.5,638.503 2023,657.5C 2023.33,658.5 2023.67,659.5 2024,660.5C 2026.32,661.822 2028.49,663.322 2030.5,665C 2029.67,668.478 2029,671.978 2028.5,675.5C 2022.77,676.105 2017.43,674.938 2012.5,672C 2010.68,670.2 2009.52,668.034 2009,665.5C 2008.5,644.503 2008.33,623.503 2008.5,602.5C 2011.69,602.142 2014.69,601.475 2017.5,600.5 Z"/></g>
<g><path style="opacity:0.919" fill="#3a91cb" d="M 2387.5,600.5 C 2389.17,600.5 2390.83,600.5 2392.5,600.5C 2392.33,620.169 2392.5,639.836 2393,659.5C 2394.35,661.432 2396.19,662.766 2398.5,663.5C 2399.37,667.465 2399.37,671.465 2398.5,675.5C 2394.08,675.695 2389.75,675.195 2385.5,674C 2382.67,672.5 2380.5,670.333 2379,667.5C 2377.56,645.878 2377.06,624.212 2377.5,602.5C 2381.04,602.247 2384.37,601.581 2387.5,600.5 Z"/></g>
<g><path style="opacity:0.924" fill="#3a91cb" d="M 3667.5,600.5 C 3669.17,600.5 3670.83,600.5 3672.5,600.5C 3672.5,608.167 3672.5,615.833 3672.5,623.5C 3682.06,621.225 3690.23,623.558 3697,630.5C 3698.75,633.246 3699.75,636.246 3700,639.5C 3700.5,651.162 3700.67,662.829 3700.5,674.5C 3695.5,674.5 3690.5,674.5 3685.5,674.5C 3685.94,662.424 3685.44,650.424 3684,638.5C 3680.46,635.741 3676.62,635.074 3672.5,636.5C 3672.5,649.167 3672.5,661.833 3672.5,674.5C 3667.5,674.5 3662.5,674.5 3657.5,674.5C 3657.5,650.5 3657.5,626.5 3657.5,602.5C 3661.04,602.247 3664.37,601.581 3667.5,600.5 Z"/></g>
<g><path style="opacity:0.911" fill="#3a91cb" d="M 2085.5,601.5 C 2095.16,600.658 2098.99,604.991 2097,614.5C 2091.67,619.833 2086.33,619.833 2081,614.5C 2079.38,608.923 2080.88,604.589 2085.5,601.5 Z"/></g>
<g><path style="opacity:0.953" fill="#3a91cb" d="M 2675.5,606.5 C 2685.87,604.611 2693.37,608.278 2698,617.5C 2699.49,627.344 2695.99,634.844 2687.5,640C 2690.67,643.167 2693.83,646.333 2697,649.5C 2697.61,646.57 2698.44,643.737 2699.5,641C 2703.49,640.83 2707.49,640.996 2711.5,641.5C 2710.85,647.455 2709.18,653.121 2706.5,658.5C 2710.08,663.328 2713.41,668.328 2716.5,673.5C 2711.53,674.662 2706.53,674.829 2701.5,674C 2700.27,672.365 2698.94,670.865 2697.5,669.5C 2686.28,676.431 2674.61,677.264 2662.5,672C 2654.45,664.203 2652.95,655.37 2658,645.5C 2660.5,642.172 2663.33,639.172 2666.5,636.5C 2659.89,627.983 2659.89,619.483 2666.5,611C 2669.32,608.921 2672.32,607.421 2675.5,606.5 Z M 2678.5,617.5 C 2685.45,618.338 2687.29,622.005 2684,628.5C 2682.33,629.833 2680.67,631.167 2679,632.5C 2673.38,627.402 2673.22,622.402 2678.5,617.5 Z M 2673.5,646.5 C 2679.71,649.704 2684.71,654.37 2688.5,660.5C 2683.44,663.747 2678.11,664.247 2672.5,662C 2670.27,660.38 2668.94,658.214 2668.5,655.5C 2669.4,652.026 2671.07,649.026 2673.5,646.5 Z"/></g>
<g><path style="opacity:0.96" fill="#3a91cb" d="M 1811.5,607.5 C 1820.56,607.154 1829.56,607.654 1838.5,609C 1849.05,611.881 1853.55,618.715 1852,629.5C 1851.18,633.135 1849.35,636.135 1846.5,638.5C 1855.83,645.656 1857.99,654.656 1853,665.5C 1844.97,673.808 1835.13,677.142 1823.5,675.5C 1817.15,675.346 1810.82,675.012 1804.5,674.5C 1804.5,652.5 1804.5,630.5 1804.5,608.5C 1807.06,608.802 1809.39,608.468 1811.5,607.5 Z M 1819.5,620.5 C 1823.85,620.334 1828.18,620.501 1832.5,621C 1839.15,625.053 1839.15,629.053 1832.5,633C 1828.18,633.499 1823.85,633.666 1819.5,633.5C 1819.5,629.167 1819.5,624.833 1819.5,620.5 Z M 1819.5,646.5 C 1825.26,646.149 1830.93,646.649 1836.5,648C 1839.39,650.909 1840.23,654.409 1839,658.5C 1838.1,659.701 1836.93,660.535 1835.5,661C 1830.26,662.339 1824.93,662.839 1819.5,662.5C 1819.5,657.167 1819.5,651.833 1819.5,646.5 Z"/></g>
<g><path style="opacity:0.96" fill="#3a91cb" d="M 2183.5,607.5 C 2194.43,606.646 2205.09,607.812 2215.5,611C 2224.36,617.242 2227.53,625.742 2225,636.5C 2222.2,645.629 2216.03,650.796 2206.5,652C 2201.51,652.499 2196.51,652.666 2191.5,652.5C 2191.5,659.833 2191.5,667.167 2191.5,674.5C 2186.17,674.5 2180.83,674.5 2175.5,674.5C 2175.33,652.831 2175.5,631.164 2176,609.5C 2178.61,608.877 2181.11,608.21 2183.5,607.5 Z M 2194.5,620.5 C 2198.6,620.918 2202.6,621.751 2206.5,623C 2209.26,625.995 2210.1,629.495 2209,633.5C 2208.17,635.667 2206.67,637.167 2204.5,638C 2200.25,639.195 2195.92,639.695 2191.5,639.5C 2191.5,633.5 2191.5,627.5 2191.5,621.5C 2192.79,621.737 2193.79,621.404 2194.5,620.5 Z"/></g>
<g><path style="opacity:0.962" fill="#3a91cb" d="M 2798.5,607.5 C 2807.56,607.154 2816.56,607.654 2825.5,609C 2836.9,612.965 2841.07,620.799 2838,632.5C 2836.69,634.641 2835.19,636.641 2833.5,638.5C 2841.86,644.579 2844.36,652.579 2841,662.5C 2837.58,669.966 2831.75,674.132 2823.5,675C 2814.83,675.667 2806.17,675.667 2797.5,675C 2795.24,674.764 2793.07,674.264 2791,673.5C 2790.33,652.167 2790.33,630.833 2791,609.5C 2793.61,608.877 2796.11,608.21 2798.5,607.5 Z M 2805.5,620.5 C 2810.18,620.334 2814.85,620.501 2819.5,621C 2826.17,625 2826.17,629 2819.5,633C 2814.85,633.499 2810.18,633.666 2805.5,633.5C 2805.5,629.167 2805.5,624.833 2805.5,620.5 Z M 2805.5,646.5 C 2811.59,646.139 2817.59,646.639 2823.5,648C 2826.89,651.373 2827.39,655.206 2825,659.5C 2824.25,660.126 2823.42,660.626 2822.5,661C 2816.93,662.351 2811.26,662.851 2805.5,662.5C 2805.5,657.167 2805.5,651.833 2805.5,646.5 Z"/></g>
<g><path style="opacity:0.997" fill="#2c5a99" d="M 216.5,608.5 C 231.438,623.938 246.604,639.272 262,654.5C 267.732,660.725 273.232,667.058 278.5,673.5C 274.538,685.55 270.704,697.55 267,709.5C 277.945,702.948 288.778,696.281 299.5,689.5C 298.972,690.847 298.805,692.181 299,693.5C 317.529,711.695 335.695,730.195 353.5,749C 354.448,749.483 355.448,749.649 356.5,749.5C 343.377,758.902 329.71,767.569 315.5,775.5C 277.566,735.398 239.066,695.731 200,656.5C 199.617,657.056 199.117,657.389 198.5,657.5C 204.129,640.938 210.129,624.605 216.5,608.5 Z"/></g>
<g><path style="opacity:0.957" fill="#3a91cb" d="M 974.5,608.5 C 979.875,608.172 985.208,608.505 990.5,609.5C 995.911,621.577 1001.41,633.577 1007,645.5C 1011.78,633.264 1017.12,621.264 1023,609.5C 1027.74,608.531 1032.57,608.197 1037.5,608.5C 1040.11,630.415 1041.78,652.415 1042.5,674.5C 1037.5,674.5 1032.5,674.5 1027.5,674.5C 1027.52,661.084 1026.69,647.75 1025,634.5C 1020.94,644.948 1016.61,655.282 1012,665.5C 1008.21,666.795 1004.38,666.795 1000.5,665.5C 995.903,654.874 991.403,644.207 987,633.5C 986.1,647.182 985.266,660.848 984.5,674.5C 979.489,674.666 974.489,674.499 969.5,674C 970.936,652.202 972.603,630.368 974.5,608.5 Z"/></g>
<g><path style="opacity:0.954" fill="#3a91cb" d="M 3283.5,608.5 C 3301.5,608.5 3319.5,608.5 3337.5,608.5C 3337.5,612.833 3337.5,617.167 3337.5,621.5C 3331.17,621.5 3324.83,621.5 3318.5,621.5C 3318.5,639.167 3318.5,656.833 3318.5,674.5C 3313.17,674.5 3307.83,674.5 3302.5,674.5C 3302.5,656.833 3302.5,639.167 3302.5,621.5C 3296.17,621.5 3289.83,621.5 3283.5,621.5C 3283.5,617.167 3283.5,612.833 3283.5,608.5 Z"/></g>
<g><path style="opacity:0.955" fill="#3a91cb" d="M 3585.5,608.5 C 3590.5,608.5 3595.5,608.5 3600.5,608.5C 3600.5,630.5 3600.5,652.5 3600.5,674.5C 3595.5,674.5 3590.5,674.5 3585.5,674.5C 3585.5,652.5 3585.5,630.5 3585.5,608.5 Z"/></g>
<g><path style="opacity:0.997" fill="#3680bc" d="M 822.5,612.5 C 842.185,633.851 862.518,654.518 883.5,674.5C 877.341,686.822 870.674,698.822 863.5,710.5C 862.504,710.414 861.671,710.748 861,711.5C 841.63,691.631 822.463,671.631 803.5,651.5C 810.139,638.558 816.472,625.558 822.5,612.5 Z"/></g>
<g><path style="opacity:0.998" fill="#3373b0" d="M 632.5,614.5 C 638.409,618.902 643.909,623.902 649,629.5C 699.637,682.471 750.637,735.137 802,787.5C 802.816,786.177 803.983,785.511 805.5,785.5C 790.36,802.646 773.693,817.98 755.5,831.5C 701.786,774.949 647.453,718.782 592.5,663C 592.728,662.601 593.062,662.435 593.5,662.5C 616.843,679.267 641.01,694.933 666,709.5C 654.885,677.911 643.718,646.244 632.5,614.5 Z"/></g>
<g><path style="opacity:0.951" fill="#3a90cb" d="M 1309.5,622.5 C 1319.11,621.11 1327.28,623.777 1334,630.5C 1334.97,632.392 1335.64,634.392 1336,636.5C 1336.83,648.847 1336.67,661.18 1335.5,673.5C 1324.49,676.505 1313.49,676.671 1302.5,674C 1294.94,669.194 1292.44,662.36 1295,653.5C 1295.69,650.804 1297.19,648.637 1299.5,647C 1306.87,643.456 1314.53,642.289 1322.5,643.5C 1322.46,639.91 1320.79,637.41 1317.5,636C 1312.05,635.245 1306.71,635.745 1301.5,637.5C 1299.67,633.426 1298.67,629.093 1298.5,624.5C 1302.39,624.354 1306.05,623.687 1309.5,622.5 Z M 1312.5,653.5 C 1315.83,653.5 1319.17,653.5 1322.5,653.5C 1322.5,656.833 1322.5,660.167 1322.5,663.5C 1318.37,665.008 1314.37,664.675 1310.5,662.5C 1307.84,658.812 1308.5,655.812 1312.5,653.5 Z"/></g>
<g><path style="opacity:0.955" fill="#3a91cb" d="M 1697.5,622.5 C 1702.9,622.309 1708.23,622.809 1713.5,624C 1719.1,625.931 1722.6,629.764 1724,635.5C 1724.83,648.18 1724.67,660.846 1723.5,673.5C 1712.49,676.505 1701.49,676.671 1690.5,674C 1684.84,670.845 1682.17,666.012 1682.5,659.5C 1682.16,651.002 1686.16,645.835 1694.5,644C 1699.88,642.772 1705.22,642.605 1710.5,643.5C 1710.67,639.83 1709.01,637.33 1705.5,636C 1700.05,635.245 1694.71,635.745 1689.5,637.5C 1687.78,633.636 1686.95,629.636 1687,625.5C 1690.56,624.335 1694.06,623.335 1697.5,622.5 Z M 1701.5,653.5 C 1704.5,653.5 1707.5,653.5 1710.5,653.5C 1712.72,663.71 1709.05,666.877 1699.5,663C 1696.3,661.053 1695.8,658.553 1698,655.5C 1699.3,654.915 1700.47,654.249 1701.5,653.5 Z"/></g>
<g><path style="opacity:0.952" fill="#3a91cb" d="M 1927.5,622.5 C 1940.52,621.582 1949.02,627.249 1953,639.5C 1953.5,644.489 1953.67,649.489 1953.5,654.5C 1943.15,654.168 1932.81,654.501 1922.5,655.5C 1924.26,660.088 1927.59,662.588 1932.5,663C 1938,663.361 1943.33,662.528 1948.5,660.5C 1949.71,664.451 1950.71,668.451 1951.5,672.5C 1942.48,676.547 1933.14,677.381 1923.5,675C 1914.8,672.296 1909.63,666.462 1908,657.5C 1904.73,640.011 1911.23,628.345 1927.5,622.5 Z M 1928.5,635.5 C 1934.33,634.577 1938,636.91 1939.5,642.5C 1933.86,643.663 1928.2,643.83 1922.5,643C 1923.61,639.732 1925.61,637.232 1928.5,635.5 Z"/></g>
<g><path style="opacity:0.942" fill="#3a90ca" d="M 2464.5,622.5 C 2471.25,622.156 2477.75,623.156 2484,625.5C 2484.13,629.655 2483.3,633.655 2481.5,637.5C 2476.32,635.568 2470.99,635.068 2465.5,636C 2464.12,638.585 2464.78,640.585 2467.5,642C 2475.53,643.584 2481.7,647.751 2486,654.5C 2488.93,664.805 2485.43,671.639 2475.5,675C 2466.68,677.154 2458.02,676.654 2449.5,673.5C 2448.85,669.069 2449.51,664.735 2451.5,660.5C 2457.56,663.256 2463.89,664.089 2470.5,663C 2473.17,661.333 2473.17,659.667 2470.5,658C 2463.34,656.173 2457.17,652.673 2452,647.5C 2446.63,634.232 2450.8,625.899 2464.5,622.5 Z"/></g>
<g><path style="opacity:0.957" fill="#3a91cb" d="M 2553.5,622.5 C 2575.77,621.602 2584.44,632.269 2579.5,654.5C 2579.17,660.833 2578.83,667.167 2578.5,673.5C 2567.82,676.55 2557.16,676.717 2546.5,674C 2540.08,671.329 2537.08,666.496 2537.5,659.5C 2537.16,651.002 2541.16,645.835 2549.5,644C 2554.88,642.772 2560.22,642.605 2565.5,643.5C 2565.96,639.58 2564.29,637.08 2560.5,636C 2555.05,635.245 2549.71,635.745 2544.5,637.5C 2542.91,633.588 2542.07,629.588 2542,625.5C 2545.88,624.267 2549.71,623.267 2553.5,622.5 Z M 2556.5,653.5 C 2559.5,653.5 2562.5,653.5 2565.5,653.5C 2567.34,664.25 2563.34,667.25 2553.5,662.5C 2550.79,658.252 2551.79,655.252 2556.5,653.5 Z"/></g>
<g><path style="opacity:0.956" fill="#3a91cb" d="M 2909.5,622.5 C 2931.47,621.833 2940.14,632.5 2935.5,654.5C 2935.17,660.833 2934.83,667.167 2934.5,673.5C 2923.81,676.451 2913.14,676.618 2902.5,674C 2896.08,671.329 2893.08,666.496 2893.5,659.5C 2893.16,651.002 2897.16,645.835 2905.5,644C 2910.88,642.772 2916.22,642.605 2921.5,643.5C 2921.96,639.58 2920.29,637.08 2916.5,636C 2911.05,635.245 2905.71,635.745 2900.5,637.5C 2898.78,633.636 2897.95,629.636 2898,625.5C 2901.88,624.267 2905.71,623.267 2909.5,622.5 Z M 2912.5,653.5 C 2915.5,653.5 2918.5,653.5 2921.5,653.5C 2923.34,664.25 2919.34,667.25 2909.5,662.5C 2906.79,658.252 2907.79,655.252 2912.5,653.5 Z"/></g>
<g><path style="opacity:0.948" fill="#3a91cb" d="M 3099.5,622.5 C 3106.46,622.059 3113.13,623.226 3119.5,626C 3123.38,629.264 3125.55,633.43 3126,638.5C 3126.83,650.181 3126.67,661.848 3125.5,673.5C 3115.56,675.966 3105.56,676.466 3095.5,675C 3087.41,672.856 3083.41,667.523 3083.5,659C 3084.17,651.333 3088.17,646.333 3095.5,644C 3101.33,643.218 3107,642.718 3112.5,642.5C 3112.14,639.308 3110.47,637.141 3107.5,636C 3101.39,635.268 3095.39,635.768 3089.5,637.5C 3089.07,633.176 3088.74,628.842 3088.5,624.5C 3092.36,624.192 3096.03,623.525 3099.5,622.5 Z M 3102.5,653.5 C 3105.83,653.5 3109.17,653.5 3112.5,653.5C 3112.5,656.833 3112.5,660.167 3112.5,663.5C 3107.63,665.091 3103.13,664.424 3099,661.5C 3097.78,657.707 3098.95,655.04 3102.5,653.5 Z"/></g>
<g><path style="opacity:0.95" fill="#3a91cb" d="M 3401.5,622.5 C 3411.11,621.11 3419.28,623.777 3426,630.5C 3426.97,632.392 3427.64,634.392 3428,636.5C 3428.83,648.847 3428.67,661.18 3427.5,673.5C 3416.48,676.491 3405.48,676.658 3394.5,674C 3388.54,670.798 3385.54,665.798 3385.5,659C 3385.63,654.083 3387.63,650.083 3391.5,647C 3398.93,643.45 3406.59,642.283 3414.5,643.5C 3414.46,639.91 3412.79,637.41 3409.5,636C 3404.03,635.149 3398.7,635.649 3393.5,637.5C 3391.54,633.452 3390.54,629.118 3390.5,624.5C 3394.36,624.192 3398.03,623.525 3401.5,622.5 Z M 3404.5,653.5 C 3407.83,653.5 3411.17,653.5 3414.5,653.5C 3414.5,656.833 3414.5,660.167 3414.5,663.5C 3410.46,664.863 3406.46,664.696 3402.5,663C 3399.47,658.974 3400.13,655.807 3404.5,653.5 Z"/></g>
<g><path style="opacity:0.956" fill="#3a91cb" d="M 3769.5,622.5 C 3791.47,621.833 3800.14,632.5 3795.5,654.5C 3795.17,660.833 3794.83,667.167 3794.5,673.5C 3783.49,676.505 3772.49,676.671 3761.5,674C 3755.84,670.845 3753.17,666.012 3753.5,659.5C 3753.16,651.002 3757.16,645.835 3765.5,644C 3770.88,642.772 3776.22,642.605 3781.5,643.5C 3781.67,639.83 3780.01,637.33 3776.5,636C 3771.05,635.245 3765.71,635.745 3760.5,637.5C 3758.78,633.636 3757.95,629.636 3758,625.5C 3761.88,624.267 3765.71,623.267 3769.5,622.5 Z M 3772.5,653.5 C 3775.5,653.5 3778.5,653.5 3781.5,653.5C 3783.72,663.71 3780.05,666.877 3770.5,663C 3767.3,661.053 3766.8,658.553 3769,655.5C 3770.3,654.915 3771.47,654.249 3772.5,653.5 Z"/></g>
<g><path style="opacity:0.928" fill="#3a91cb" d="M 1508.5,622.5 C 1517.36,621.654 1524.86,624.321 1531,630.5C 1532.4,633.363 1533.4,636.363 1534,639.5C 1534.5,651.162 1534.67,662.829 1534.5,674.5C 1529.5,674.5 1524.5,674.5 1519.5,674.5C 1519.94,662.424 1519.44,650.424 1518,638.5C 1514.49,635.821 1510.66,635.155 1506.5,636.5C 1506.5,649.167 1506.5,661.833 1506.5,674.5C 1501.5,674.5 1496.5,674.5 1491.5,674.5C 1491.5,658.167 1491.5,641.833 1491.5,625.5C 1497.28,624.421 1502.95,623.421 1508.5,622.5 Z"/></g>
<g><path style="opacity:0.925" fill="#3a91cb" d="M 3192.5,623.5 C 3199.88,623.274 3207.21,623.608 3214.5,624.5C 3214.42,628.794 3213.76,632.961 3212.5,637C 3207.56,636.674 3202.56,636.508 3197.5,636.5C 3197.5,649.167 3197.5,661.833 3197.5,674.5C 3192.5,674.5 3187.5,674.5 3182.5,674.5C 3182.17,658.486 3182.5,642.486 3183.5,626.5C 3186.66,625.635 3189.66,624.635 3192.5,623.5 Z"/></g>
<g><path style="opacity:0.953" fill="#3a91cb" d="M 3505.5,622.5 C 3512.9,623.063 3520.23,624.063 3527.5,625.5C 3527.67,642.17 3527.5,658.837 3527,675.5C 3525.59,684.576 3520.42,690.076 3511.5,692C 3505.17,692.667 3498.83,692.667 3492.5,692C 3489.58,691.583 3486.91,690.583 3484.5,689C 3485.58,685.595 3486.42,682.095 3487,678.5C 3489.15,677.524 3491.31,677.691 3493.5,679C 3498.5,679.667 3503.5,679.667 3508.5,679C 3511.32,676.859 3512.65,674.025 3512.5,670.5C 3490.04,673.875 3480.21,664.208 3483,641.5C 3485.94,629.63 3493.44,623.297 3505.5,622.5 Z M 3503.5,635.5 C 3506.5,635.5 3509.5,635.5 3512.5,635.5C 3512.67,642.841 3512.5,650.174 3512,657.5C 3502.77,661.288 3497.94,658.121 3497.5,648C 3497.32,642.646 3499.32,638.479 3503.5,635.5 Z"/></g>
<g><path style="opacity:0.972" fill="#3a91cb" d="M 3869.5,622.5 C 3876.25,622.39 3882.58,623.89 3888.5,627C 3891.46,629.875 3893.3,633.375 3894,637.5C 3894.5,649.829 3894.67,662.162 3894.5,674.5C 3889.83,674.5 3885.17,674.5 3880.5,674.5C 3880.88,663.112 3880.38,651.779 3879,640.5C 3877.73,637.402 3875.4,635.735 3872,635.5C 3870.23,636.233 3868.4,636.567 3866.5,636.5C 3866.5,649.167 3866.5,661.833 3866.5,674.5C 3861.83,674.5 3857.17,674.5 3852.5,674.5C 3852.5,658.167 3852.5,641.833 3852.5,625.5C 3858.28,624.421 3863.95,623.421 3869.5,622.5 Z"/></g>
<g><path style="opacity:0.965" fill="#3a91cb" d="M 1097.5,624.5 C 1102.5,624.5 1107.5,624.5 1112.5,624.5C 1112.06,636.243 1112.56,647.91 1114,659.5C 1117.15,663.05 1120.99,664.05 1125.5,662.5C 1125.5,649.833 1125.5,637.167 1125.5,624.5C 1130.5,624.5 1135.5,624.5 1140.5,624.5C 1140.5,640.833 1140.5,657.167 1140.5,673.5C 1129.49,676.598 1118.49,676.765 1107.5,674C 1101.35,669.877 1098.19,664.043 1098,656.5C 1097.5,645.839 1097.33,635.172 1097.5,624.5 Z"/></g>
<g><path style="opacity:0.953" fill="#3a91cb" d="M 1585.5,624.5 C 1590.54,624.173 1595.54,624.506 1600.5,625.5C 1603.51,635.22 1606.68,644.887 1610,654.5C 1613.79,645.131 1616.79,635.464 1619,625.5C 1624.11,624.196 1629.28,624.196 1634.5,625.5C 1628.91,646.431 1621.08,666.431 1611,685.5C 1608.64,688.869 1605.47,691.036 1601.5,692C 1596.1,692.772 1590.76,692.439 1585.5,691C 1584.98,690.439 1584.64,689.772 1584.5,689C 1585.49,685.553 1586.16,682.053 1586.5,678.5C 1590.15,679.283 1593.81,679.45 1597.5,679C 1600.48,677.855 1602.14,675.688 1602.5,672.5C 1595.24,657.047 1589.57,641.047 1585.5,624.5 Z"/></g>
<g><path style="opacity:0.913" fill="#3a91cb" d="M 2081.5,624.5 C 2086.5,624.5 2091.5,624.5 2096.5,624.5C 2096.5,641.167 2096.5,657.833 2096.5,674.5C 2091.5,674.5 2086.5,674.5 2081.5,674.5C 2081.5,657.833 2081.5,641.167 2081.5,624.5 Z"/></g>
<g><path style="opacity:0.941" fill="#3a91cb" d="M 2278.5,624.5 C 2283.5,624.5 2288.5,624.5 2293.5,624.5C 2293.33,635.838 2293.5,647.172 2294,658.5C 2295.27,661.598 2297.6,663.265 2301,663.5C 2302.77,662.767 2304.6,662.433 2306.5,662.5C 2306.5,649.833 2306.5,637.167 2306.5,624.5C 2311.5,624.5 2316.5,624.5 2321.5,624.5C 2321.5,640.833 2321.5,657.167 2321.5,673.5C 2313.26,675.324 2304.92,676.157 2296.5,676C 2286.46,674.96 2280.63,669.46 2279,659.5C 2278.5,647.838 2278.33,636.171 2278.5,624.5 Z"/></g>
<g><path style="opacity:0.954" fill="#3a90ca" d="M 2986.5,624.5 C 2991.83,624.5 2997.17,624.5 3002.5,624.5C 3004.75,635.098 3007.92,645.431 3012,655.5C 3015.3,645.28 3018.14,634.946 3020.5,624.5C 3025.84,624.334 3031.18,624.501 3036.5,625C 3030.29,646.301 3022.12,666.801 3012,686.5C 3004.5,692.79 2996.17,694.123 2987,690.5C 2986.67,687.134 2987,683.801 2988,680.5C 2988.39,679.572 2989.05,678.905 2990,678.5C 2996.9,681.297 3001.73,679.297 3004.5,672.5C 2996.81,657.127 2990.81,641.127 2986.5,624.5 Z"/></g>
<g><path style="opacity:0.989" fill="#294d8e" d="M 35.5,643.5 C 109.466,718.967 183.299,794.634 257,870.5C 263.065,877.058 268.898,883.725 274.5,890.5C 199.766,856.614 137.933,806.614 89,740.5C 67.0336,710.578 49.2003,678.244 35.5,643.5 Z"/></g>
<g><path style="opacity:0.996" fill="#2e609f" d="M 360.5,645.5 C 379.133,664.3 397.633,683.3 416,702.5C 416.464,703.094 416.631,703.761 416.5,704.5C 401.427,717.235 385.76,729.235 369.5,740.5C 368.262,740.19 368.262,739.69 369.5,739C 350.471,720.305 331.805,701.305 313.5,682C 314.252,681.329 314.586,680.496 314.5,679.5C 330.115,668.552 345.448,657.219 360.5,645.5 Z"/></g>
<g><path style="opacity:0.997" fill="#357db9" d="M 803.5,651.5 C 822.463,671.631 841.63,691.631 861,711.5C 861.671,710.748 862.504,710.414 863.5,710.5C 857.649,720.217 851.315,729.55 844.5,738.5C 843.761,738.631 843.094,738.464 842.5,738C 823.918,718.252 804.918,699.086 785.5,680.5C 791.765,670.965 797.765,661.298 803.5,651.5 Z"/></g>
<g><path style="opacity:1" fill="#2b5696" d="M 315.5,775.5 C 302.496,783.338 289.162,790.671 275.5,797.5C 243.886,767.052 213.053,735.718 183,703.5C 182.617,704.056 182.117,704.389 181.5,704.5C 186.891,688.721 192.558,673.054 198.5,657.5C 199.117,657.389 199.617,657.056 200,656.5C 239.066,695.731 277.566,735.398 315.5,775.5 Z"/></g>
<g><path style="opacity:0.998" fill="#347ab6" d="M 785.5,680.5 C 804.918,699.086 823.918,718.252 842.5,738C 843.094,738.464 843.761,738.631 844.5,738.5C 835.562,751.103 825.895,763.103 815.5,774.5C 796.5,755.167 777.5,735.833 758.5,716.5C 767.987,704.858 776.987,692.858 785.5,680.5 Z"/></g>
<g><path style="opacity:1" fill="#2d5c9c" d="M 314.5,679.5 C 314.586,680.496 314.252,681.329 313.5,682C 331.805,701.305 350.471,720.305 369.5,739C 368.262,739.69 368.262,740.19 369.5,740.5C 365.465,743.857 361.132,746.857 356.5,749.5C 355.448,749.649 354.448,749.483 353.5,749C 335.695,730.195 317.529,711.695 299,693.5C 298.805,692.181 298.972,690.847 299.5,689.5C 304.5,686.167 309.5,682.833 314.5,679.5 Z"/></g>
<g><path style="opacity:0.997" fill="#306ba9" d="M 653.5,802.5 C 653.369,803.239 653.536,803.906 654,804.5C 672.385,823.43 690.885,842.263 709.5,861C 711.107,860.981 712.774,860.815 714.5,860.5C 706.836,865.668 698.836,870.335 690.5,874.5C 671.169,853.503 651.169,833.169 630.5,813.5C 638.01,809.579 645.676,805.912 653.5,802.5 Z"/></g>
<g><path style="opacity:0.999" fill="#2b5696" d="M 282.5,803.5 C 313.799,820.49 346.799,833.157 381.5,841.5C 409.077,871.247 437.244,900.581 466,929.5C 466.464,930.094 466.631,930.761 466.5,931.5C 456.167,931.5 445.833,931.5 435.5,931.5C 423.966,930.245 412.299,928.911 400.5,927.5C 361.173,887.339 322.006,847.006 283,806.5C 282.517,805.552 282.351,804.552 282.5,803.5 Z"/></g>
<g><path style="opacity:0.997" fill="#3066a5" d="M 630.5,813.5 C 651.169,833.169 671.169,853.503 690.5,874.5C 666.422,888.201 641.088,899.201 614.5,907.5C 593.855,885.854 573.188,864.187 552.5,842.5C 553.949,841.828 555.282,841.161 556.5,840.5C 581.972,833.896 606.639,824.896 630.5,813.5 Z"/></g>
<g><path style="opacity:0.996" fill="#2c5a99" d="M 381.5,841.5 C 405.246,846.468 429.246,849.468 453.5,850.5C 477.444,876.779 502.111,902.446 527.5,927.5C 517.531,929.097 507.531,930.43 497.5,931.5C 487.167,931.5 476.833,931.5 466.5,931.5C 466.631,930.761 466.464,930.094 466,929.5C 437.244,900.581 409.077,871.247 381.5,841.5 Z"/></g>
<g><path style="opacity:0.996" fill="#2e609f" d="M 556.5,840.5 C 555.282,841.161 553.949,841.828 552.5,842.5C 573.188,864.187 593.855,885.854 614.5,907.5C 593.47,915.175 571.804,920.842 549.5,924.5C 525.607,899.362 501.273,874.695 476.5,850.5C 503.484,849.627 530.151,846.294 556.5,840.5 Z"/></g>
<g><path style="opacity:1" fill="#2d5c9c" d="M 453.5,850.5 C 461.167,850.5 468.833,850.5 476.5,850.5C 501.273,874.695 525.607,899.362 549.5,924.5C 542.267,926.15 534.934,927.15 527.5,927.5C 502.111,902.446 477.444,876.779 453.5,850.5 Z"/></g>
</svg>
