<?xml version="1.0" encoding="UTF-8"?>
<!DOCTYPE svg PUBLIC "-//W3C//DTD SVG 1.1//EN" "http://www.w3.org/Graphics/SVG/1.1/DTD/svg11.dtd">
<svg xmlns="http://www.w3.org/2000/svg" version="1.1" width="252px" height="103px" style="shape-rendering:geometricPrecision; text-rendering:geometricPrecision; image-rendering:optimizeQuality; fill-rule:evenodd; clip-rule:evenodd" xmlns:xlink="http://www.w3.org/1999/xlink">
<g><path style="opacity:0.832" fill="#244350" d="M 56.5,-0.5 C 82.5,-0.5 108.5,-0.5 134.5,-0.5C 134.5,2.16667 134.5,4.83333 134.5,7.5C 108.5,7.5 82.5,7.5 56.5,7.5C 56.5,4.83333 56.5,2.16667 56.5,-0.5 Z"/></g>
<g><path style="opacity:0.823" fill="#244350" d="M 137.5,-0.5 C 148.5,-0.5 159.5,-0.5 170.5,-0.5C 170.5,2.16667 170.5,4.83333 170.5,7.5C 159.5,7.5 148.5,7.5 137.5,7.5C 137.5,4.83333 137.5,2.16667 137.5,-0.5 Z"/></g>
<g><path style="opacity:0.994" fill="#fe463e" d="M 251.5,4.5 C 251.5,16.8333 251.5,29.1667 251.5,41.5C 249.86,42.3201 248.193,43.1534 246.5,44C 231.504,44.4999 216.504,44.6666 201.5,44.5C 195.491,44.6662 189.491,44.4995 183.5,44C 180.854,43.1959 178.854,41.6959 177.5,39.5C 177.5,36.1667 177.5,32.8333 177.5,29.5C 177.817,25.2984 177.483,21.2984 176.5,17.5C 176.21,13.0638 176.71,8.73046 178,4.5C 180.543,2.64573 183.376,1.47906 186.5,1C 205.167,0.333333 223.833,0.333333 242.5,1C 245.739,1.62177 248.739,2.78844 251.5,4.5 Z"/></g>
<g><path style="opacity:1" fill="#fee2d1" d="M 186.5,4.5 C 188.467,4.26057 190.301,4.59391 192,5.5C 193.333,10.1667 194.667,14.8333 196,19.5C 197.328,14.522 198.495,9.52204 199.5,4.5C 201.167,4.5 202.833,4.5 204.5,4.5C 202.978,11.2345 201.145,17.9012 199,24.5C 198.501,29.4889 198.334,34.4889 198.5,39.5C 196.833,39.5 195.167,39.5 193.5,39.5C 193.666,35.4862 193.499,31.4862 193,27.5C 190.923,19.7751 188.757,12.1084 186.5,4.5 Z"/></g>
<g><path style="opacity:1" fill="#fdead9" d="M 217.5,5.5 C 218.833,5.5 220.167,5.5 221.5,5.5C 221.5,14.8333 221.5,24.1667 221.5,33.5C 221.607,35.9032 220.607,37.7365 218.5,39C 214.756,39.9285 211.256,39.4285 208,37.5C 206.569,26.5775 206.069,15.5775 206.5,4.5C 208.167,4.5 209.833,4.5 211.5,4.5C 211.334,14.1724 211.5,23.8391 212,33.5C 213.667,34.8333 215.333,34.8333 217,33.5C 217.5,24.1726 217.666,14.8393 217.5,5.5 Z"/></g>
<g><path style="opacity:1" fill="#fe9689" d="M 217.5,5.5 C 218.919,4.54885 220.585,4.21552 222.5,4.5C 222.827,14.3478 222.494,24.0144 221.5,33.5C 221.5,24.1667 221.5,14.8333 221.5,5.5C 220.167,5.5 218.833,5.5 217.5,5.5 Z"/></g>
<g><path style="opacity:1" fill="#fde8d7" d="M 237.5,4.5 C 239.288,4.21478 240.955,4.54811 242.5,5.5C 239.893,10.3797 237.56,15.3797 235.5,20.5C 237.833,26.5 240.167,32.5 242.5,38.5C 240.647,39.7596 238.814,39.7596 237,38.5C 232.458,22.24 230.291,22.5734 230.5,39.5C 228.833,39.5 227.167,39.5 225.5,39.5C 225.5,28.1667 225.5,16.8333 225.5,5.5C 227.167,5.5 228.833,5.5 230.5,5.5C 230.334,10.1785 230.501,14.8452 231,19.5C 233.181,14.4741 235.348,9.47409 237.5,4.5 Z"/></g>
<g><path style="opacity:0.985" fill="#fe7671" d="M 176.5,17.5 C 177.483,21.2984 177.817,25.2984 177.5,29.5C 175.5,29.5 173.5,29.5 171.5,29.5C 171.5,43.1667 171.5,56.8333 171.5,70.5C 173.5,70.5 175.5,70.5 177.5,70.5C 177.5,60.1667 177.5,49.8333 177.5,39.5C 178.854,41.6959 180.854,43.1959 183.5,44C 189.491,44.4995 195.491,44.6662 201.5,44.5C 201.667,57.5043 201.5,70.5043 201,83.5C 200.5,84 200,84.5 199.5,85C 137.93,85.831 76.4296,85.6643 15,84.5C 13.3678,63.5643 13.0344,42.5643 14,21.5C 14.4652,20.0692 15.2986,18.9025 16.5,18C 69.8323,17.5 123.166,17.3333 176.5,17.5 Z"/></g>
<g><path style="opacity:1" fill="#fde8d6" d="M 34.5,29.5 C 37.1667,29.5 39.8333,29.5 42.5,29.5C 44.482,36.4266 46.3154,43.4266 48,50.5C 48.4996,43.5079 48.6663,36.5079 48.5,29.5C 50.5,29.5 52.5,29.5 54.5,29.5C 54.5,43.1667 54.5,56.8333 54.5,70.5C 52.1667,70.5 49.8333,70.5 47.5,70.5C 45.8083,61.3992 43.6416,52.3992 41,43.5C 40.5002,52.4938 40.3336,61.4938 40.5,70.5C 38.5,70.5 36.5,70.5 34.5,70.5C 34.5,56.8333 34.5,43.1667 34.5,29.5 Z"/></g>
<g><path style="opacity:1" fill="#fde9d8" d="M 76.5,35.5 C 76.5,37.8333 76.5,40.1667 76.5,42.5C 74.8333,42.5 73.1667,42.5 71.5,42.5C 71.7947,40.2646 71.4614,38.2646 70.5,36.5C 68.8022,33.8761 66.9688,33.8761 65,36.5C 64.3333,45.5 64.3333,54.5 65,63.5C 67,64.8333 69,64.8333 71,63.5C 71.4983,60.1832 71.665,56.8499 71.5,53.5C 70.5,53.5 69.5,53.5 68.5,53.5C 68.5,51.5 68.5,49.5 68.5,47.5C 71.5,47.5 74.5,47.5 77.5,47.5C 77.666,52.8437 77.4994,58.1771 77,63.5C 74.4189,70.1873 69.5856,72.354 62.5,70C 60.9512,68.786 59.7845,67.286 59,65.5C 58.3333,54.8333 58.3333,44.1667 59,33.5C 63.3927,27.9624 68.5593,27.1291 74.5,31C 75.5822,32.3297 76.2488,33.8297 76.5,35.5 Z"/></g>
<g><path style="opacity:1" fill="#fde8d6" d="M 85.5,29.5 C 88.8333,29.5 92.1667,29.5 95.5,29.5C 97.2208,42.8795 99.2208,56.2128 101.5,69.5C 99.2573,70.4742 96.924,70.8076 94.5,70.5C 94.5,68.1667 94.5,65.8333 94.5,63.5C 91.5,63.5 88.5,63.5 85.5,63.5C 85.5,65.8333 85.5,68.1667 85.5,70.5C 83.5,70.5 81.5,70.5 79.5,70.5C 81.2556,56.7871 83.2556,43.1204 85.5,29.5 Z"/></g>
<g><path style="opacity:1" fill="#fde9d7" d="M 103.5,29.5 C 106.5,29.5 109.5,29.5 112.5,29.5C 114.168,37.1716 116.001,44.8383 118,52.5C 118.5,44.8406 118.666,37.1739 118.5,29.5C 120.167,29.5 121.833,29.5 123.5,29.5C 123.5,43.1667 123.5,56.8333 123.5,70.5C 120.921,70.9167 118.754,70.25 117,68.5C 114.823,59.4571 112.489,50.4571 110,41.5C 109.5,51.1609 109.334,60.8276 109.5,70.5C 107.5,70.5 105.5,70.5 103.5,70.5C 103.5,56.8333 103.5,43.1667 103.5,29.5 Z"/></g>
<g><path style="opacity:1" fill="#fde5d4" d="M 126.5,29.5 C 132.833,29.5 139.167,29.5 145.5,29.5C 145.5,31.5 145.5,33.5 145.5,35.5C 143.5,35.5 141.5,35.5 139.5,35.5C 139.5,47.1667 139.5,58.8333 139.5,70.5C 137.167,70.5 134.833,70.5 132.5,70.5C 132.5,58.8333 132.5,47.1667 132.5,35.5C 130.5,35.5 128.5,35.5 126.5,35.5C 126.5,33.5 126.5,31.5 126.5,29.5 Z"/></g>
<g><path style="opacity:1" fill="#fdead8" d="M 148.5,29.5 C 153.179,29.3342 157.845,29.5008 162.5,30C 164.667,30.8333 166.167,32.3333 167,34.5C 167.667,38.1667 167.667,41.8333 167,45.5C 166.326,47.5165 165.159,49.1832 163.5,50.5C 165.197,51.3636 166.363,52.6969 167,54.5C 167.499,59.8229 167.666,65.1563 167.5,70.5C 165.5,70.5 163.5,70.5 161.5,70.5C 161.666,65.8215 161.499,61.1548 161,56.5C 159.535,54.085 157.368,53.085 154.5,53.5C 154.5,59.1667 154.5,64.8333 154.5,70.5C 152.5,70.5 150.5,70.5 148.5,70.5C 148.5,56.8333 148.5,43.1667 148.5,29.5 Z"/></g>
<g><path style="opacity:1" fill="#fdeddb" d="M 177.5,29.5 C 177.5,32.8333 177.5,36.1667 177.5,39.5C 177.5,49.8333 177.5,60.1667 177.5,70.5C 175.5,70.5 173.5,70.5 171.5,70.5C 171.5,56.8333 171.5,43.1667 171.5,29.5C 173.5,29.5 175.5,29.5 177.5,29.5 Z"/></g>
<g><path style="opacity:1" fill="#ff7973" d="M 154.5,35.5 C 159.492,34.4921 161.492,36.4921 160.5,41.5C 161.492,46.5079 159.492,48.5079 154.5,47.5C 154.5,43.5 154.5,39.5 154.5,35.5 Z"/></g>
<g><path style="opacity:1" fill="#ff847c" d="M 89.5,37.5 C 91.6013,43.8685 92.6013,50.5351 92.5,57.5C 90.8333,57.5 89.1667,57.5 87.5,57.5C 87.5111,50.7585 88.1778,44.0918 89.5,37.5 Z"/></g>
<g><path style="opacity:1" fill="#feb7aa" d="M 76.5,35.5 C 77.4731,37.9479 77.8064,40.6146 77.5,43.5C 75.1667,43.5 72.8333,43.5 70.5,43.5C 70.5,41.1667 70.5,38.8333 70.5,36.5C 71.4614,38.2646 71.7947,40.2646 71.5,42.5C 73.1667,42.5 74.8333,42.5 76.5,42.5C 76.5,40.1667 76.5,37.8333 76.5,35.5 Z"/></g>
<g><path style="opacity:0.86" fill="#244350" d="M 210.5,56.5 C 212.833,56.5 215.167,56.5 217.5,56.5C 217.667,70.1707 217.5,83.8374 217,97.5C 215.786,99.0488 214.286,100.215 212.5,101C 201.172,101.5 189.838,101.667 178.5,101.5C 178.5,98.8333 178.5,96.1667 178.5,93.5C 189.167,93.5 199.833,93.5 210.5,93.5C 210.5,81.1667 210.5,68.8333 210.5,56.5 Z"/></g>
<g><path style="opacity:0.915" fill="#244250" d="M -0.5,64.5 C 2.16667,64.5 4.83333,64.5 7.5,64.5C 7.5,74.8333 7.5,85.1667 7.5,95.5C 29.1667,95.5 50.8333,95.5 72.5,95.5C 72.5,97.8333 72.5,100.167 72.5,102.5C 49.5,102.5 26.5,102.5 3.5,102.5C 2.13632,100.809 0.802988,99.1423 -0.5,97.5C -0.5,86.5 -0.5,75.5 -0.5,64.5 Z"/></g>
<g><path style="opacity:0.934" fill="#22434e" d="M 139.5,93.5 C 150.5,93.5 161.5,93.5 172.5,93.5C 172.5,96.1667 172.5,98.8333 172.5,101.5C 161.5,101.5 150.5,101.5 139.5,101.5C 139.5,98.8333 139.5,96.1667 139.5,93.5 Z"/></g>
</svg>
